<svg width="875" height="874" viewBox="0 0 875 874" fill="none" xmlns="http://www.w3.org/2000/svg">
<mask id="path-1-inside-1_46_4" fill="white">
<path fill-rule="evenodd" clip-rule="evenodd" d="M346.151 18.746C340.002 29.056 322.114 59.031 306.401 85.358C290.688 111.685 277.832 133.359 277.832 133.523C277.832 133.79 304.078 177.898 343.118 243.241L357.308 266.991L437.32 266.967L517.332 266.942L556.832 200.804C578.557 164.428 596.453 134.376 596.601 134.021C596.749 133.667 584.895 113.378 570.26 88.934C555.624 64.49 537.728 34.493 530.491 22.273L517.332 0.0550003L437.332 0.0279999L357.332 0L346.151 18.746ZM541.722 71.641C560.208 102.524 576.093 129.1 577.024 130.698L578.716 133.604L543.489 192.547L508.261 251.491L437.296 251.719L366.332 251.947L353.134 229.719C345.875 217.494 330.019 190.864 317.898 170.541L295.861 133.591L331.096 74.323L366.332 15.055L437.222 15.273L508.112 15.491L541.722 71.641ZM79.0986 157.241C78.5616 157.929 69.8036 172.441 59.6376 189.491C49.4716 206.541 31.8206 236.135 20.4136 255.255C9.0076 274.375 -0.177399 290.404 0.00260114 290.875C0.183601 291.346 18.1066 321.492 39.8316 357.866L79.3316 424.001L159.297 423.746L239.261 423.491L256.902 393.991C266.604 377.766 283.66 349.191 294.805 330.491C305.95 311.791 315.91 295.095 316.94 293.389L318.812 290.288L297.705 254.889C286.096 235.42 268.07 205.204 257.648 187.741L238.697 155.991H159.387C97.1266 155.991 79.8666 156.26 79.0986 157.241ZM634.285 156.766C633.489 157.318 564.736 271.805 555.781 287.491L554.069 290.491L561.296 302.491C565.271 309.091 583.23 339.128 601.204 369.241L633.885 423.991H713.641H793.397L833.227 357.385C867.753 299.647 872.923 290.487 872.058 288.587C871.189 286.681 831.61 220.222 802.918 172.491L793.3 156.491L714.316 156.266C670.875 156.143 634.861 156.368 634.285 156.766ZM231.565 174.241C232.145 175.479 247.925 202.082 266.633 233.359L300.646 290.227L296.366 297.359C294.013 301.282 278.065 328.007 260.927 356.748L229.767 409.004L159.049 408.748L88.3316 408.491L68.5726 375.491C57.7056 357.341 41.8256 330.735 33.2846 316.367L17.7556 290.243L35.8626 259.867C45.8216 243.16 61.6916 216.554 71.1286 200.741L88.2866 171.991H159.399H230.511L231.565 174.241ZM791.842 184.241C795.837 190.979 811.702 217.563 827.097 243.318C852.296 285.476 854.968 290.362 853.894 292.318C853.238 293.513 837.318 320.141 818.516 351.491L784.332 408.491L713.696 408.748L643.061 409.004L607.696 349.79C588.246 317.222 572.444 290.222 572.58 289.79C572.716 289.357 588.593 262.676 607.862 230.497L642.897 171.991H713.737H784.578L791.842 184.241ZM357.087 304.241C356.356 305.163 298.173 402.354 279.552 433.758L277.614 437.025L297.973 471.092C309.171 489.829 327.118 519.858 337.857 537.825L357.382 570.491L437.084 570.747L516.786 571.003L556.866 503.985L596.945 436.966L556.862 369.979L516.778 302.991H437.427C375.142 302.991 357.864 303.26 357.087 304.241ZM543.544 378.001L578.756 436.965L543.544 495.954L508.332 554.944L437.301 554.967L366.269 554.991L331.062 496.022L295.854 437.053L309.706 413.772C317.324 400.967 333.156 374.404 344.887 354.741L366.217 318.991L437.275 319.014L508.332 319.037L543.544 378.001ZM66.7246 485.741C59.2446 498.254 41.3306 528.201 26.9146 552.29C12.4986 576.38 0.845601 596.661 1.0176 597.359C1.1906 598.058 19.1066 628.398 40.8316 664.781L80.3316 730.934L159.941 730.962L239.551 730.991L279.573 663.914L319.596 596.838L298.606 561.664C287.062 542.319 269.097 512.203 258.684 494.741L239.752 462.991H160.038H80.3246L66.7246 485.741ZM634.098 464.241C633.56 464.929 621.06 485.741 606.322 510.491C591.583 535.241 573.971 564.795 567.183 576.166L554.843 596.842L569.674 621.666C577.832 635.32 595.84 665.504 609.694 688.741L634.881 730.991L714.607 730.951L794.332 730.911L797.929 724.701C799.907 721.286 816.829 692.841 835.532 661.491C854.235 630.141 870.551 602.691 871.79 600.491L874.042 596.491L855.171 564.991C844.791 547.666 826.856 517.634 815.316 498.254L794.332 463.016L714.704 463.004C652.179 462.994 634.867 463.259 634.098 464.241ZM787.434 482.213C788.591 484.016 804.472 510.555 822.727 541.188L855.917 596.885L829.51 641.188C814.986 665.555 799.168 692.129 794.359 700.241L785.615 714.991L714.474 714.975L643.332 714.96L628.338 689.725C620.091 675.846 604.271 649.275 593.183 630.678L573.023 596.865L582.093 581.678C601.621 548.982 621.491 515.648 632.106 497.777C638.22 487.484 643.89 478.934 644.706 478.777C645.522 478.62 677.497 478.591 715.761 478.713L785.332 478.935L787.434 482.213ZM265.332 536.009C284.032 567.335 299.729 594.017 300.213 595.303C300.97 597.308 296.44 605.449 268.35 652.566C250.34 682.775 234.525 709.179 233.204 711.241L230.804 714.991H159.942H89.0796L54.4366 657.023C35.3826 625.14 19.5606 598.449 19.2776 597.71C18.9936 596.97 34.5576 569.956 53.8646 537.678L88.9666 478.991L160.15 479.022L231.332 479.053L265.332 536.009ZM436.815 606.747L357.298 607.003L344.611 628.247C289.215 721.004 277.791 740.345 278.044 740.947C278.202 741.325 296.106 771.415 317.829 807.813L357.326 873.991L437.329 873.961L517.332 873.931L532.296 848.711C540.526 834.84 558.452 804.816 572.131 781.992C590.599 751.176 596.764 740.106 596.08 738.992C595.574 738.166 577.702 708.241 556.366 672.491C535.03 636.741 517.294 607.266 516.953 606.991C516.611 606.716 480.549 606.606 436.815 606.747ZM541.797 678.645C560.241 709.529 576.085 736.091 577.006 737.671L578.68 740.543L552.089 785.017C537.464 809.478 521.61 836.016 516.858 843.991L508.218 858.491L437.275 858.709L366.332 858.927L331.09 799.648L295.848 740.369L317.892 703.43C330.016 683.114 345.875 656.488 353.134 644.263L366.332 622.035L437.297 622.263L508.262 622.491L541.797 678.645Z"/>
</mask>
<path fill-rule="evenodd" clip-rule="evenodd" d="M346.151 18.746C340.002 29.056 322.114 59.031 306.401 85.358C290.688 111.685 277.832 133.359 277.832 133.523C277.832 133.79 304.078 177.898 343.118 243.241L357.308 266.991L437.32 266.967L517.332 266.942L556.832 200.804C578.557 164.428 596.453 134.376 596.601 134.021C596.749 133.667 584.895 113.378 570.26 88.934C555.624 64.49 537.728 34.493 530.491 22.273L517.332 0.0550003L437.332 0.0279999L357.332 0L346.151 18.746ZM541.722 71.641C560.208 102.524 576.093 129.1 577.024 130.698L578.716 133.604L543.489 192.547L508.261 251.491L437.296 251.719L366.332 251.947L353.134 229.719C345.875 217.494 330.019 190.864 317.898 170.541L295.861 133.591L331.096 74.323L366.332 15.055L437.222 15.273L508.112 15.491L541.722 71.641ZM79.0986 157.241C78.5616 157.929 69.8036 172.441 59.6376 189.491C49.4716 206.541 31.8206 236.135 20.4136 255.255C9.0076 274.375 -0.177399 290.404 0.00260114 290.875C0.183601 291.346 18.1066 321.492 39.8316 357.866L79.3316 424.001L159.297 423.746L239.261 423.491L256.902 393.991C266.604 377.766 283.66 349.191 294.805 330.491C305.95 311.791 315.91 295.095 316.94 293.389L318.812 290.288L297.705 254.889C286.096 235.42 268.07 205.204 257.648 187.741L238.697 155.991H159.387C97.1266 155.991 79.8666 156.26 79.0986 157.241ZM634.285 156.766C633.489 157.318 564.736 271.805 555.781 287.491L554.069 290.491L561.296 302.491C565.271 309.091 583.23 339.128 601.204 369.241L633.885 423.991H713.641H793.397L833.227 357.385C867.753 299.647 872.923 290.487 872.058 288.587C871.189 286.681 831.61 220.222 802.918 172.491L793.3 156.491L714.316 156.266C670.875 156.143 634.861 156.368 634.285 156.766ZM231.565 174.241C232.145 175.479 247.925 202.082 266.633 233.359L300.646 290.227L296.366 297.359C294.013 301.282 278.065 328.007 260.927 356.748L229.767 409.004L159.049 408.748L88.3316 408.491L68.5726 375.491C57.7056 357.341 41.8256 330.735 33.2846 316.367L17.7556 290.243L35.8626 259.867C45.8216 243.16 61.6916 216.554 71.1286 200.741L88.2866 171.991H159.399H230.511L231.565 174.241ZM791.842 184.241C795.837 190.979 811.702 217.563 827.097 243.318C852.296 285.476 854.968 290.362 853.894 292.318C853.238 293.513 837.318 320.141 818.516 351.491L784.332 408.491L713.696 408.748L643.061 409.004L607.696 349.79C588.246 317.222 572.444 290.222 572.58 289.79C572.716 289.357 588.593 262.676 607.862 230.497L642.897 171.991H713.737H784.578L791.842 184.241ZM357.087 304.241C356.356 305.163 298.173 402.354 279.552 433.758L277.614 437.025L297.973 471.092C309.171 489.829 327.118 519.858 337.857 537.825L357.382 570.491L437.084 570.747L516.786 571.003L556.866 503.985L596.945 436.966L556.862 369.979L516.778 302.991H437.427C375.142 302.991 357.864 303.26 357.087 304.241ZM543.544 378.001L578.756 436.965L543.544 495.954L508.332 554.944L437.301 554.967L366.269 554.991L331.062 496.022L295.854 437.053L309.706 413.772C317.324 400.967 333.156 374.404 344.887 354.741L366.217 318.991L437.275 319.014L508.332 319.037L543.544 378.001ZM66.7246 485.741C59.2446 498.254 41.3306 528.201 26.9146 552.29C12.4986 576.38 0.845601 596.661 1.0176 597.359C1.1906 598.058 19.1066 628.398 40.8316 664.781L80.3316 730.934L159.941 730.962L239.551 730.991L279.573 663.914L319.596 596.838L298.606 561.664C287.062 542.319 269.097 512.203 258.684 494.741L239.752 462.991H160.038H80.3246L66.7246 485.741ZM634.098 464.241C633.56 464.929 621.06 485.741 606.322 510.491C591.583 535.241 573.971 564.795 567.183 576.166L554.843 596.842L569.674 621.666C577.832 635.32 595.84 665.504 609.694 688.741L634.881 730.991L714.607 730.951L794.332 730.911L797.929 724.701C799.907 721.286 816.829 692.841 835.532 661.491C854.235 630.141 870.551 602.691 871.79 600.491L874.042 596.491L855.171 564.991C844.791 547.666 826.856 517.634 815.316 498.254L794.332 463.016L714.704 463.004C652.179 462.994 634.867 463.259 634.098 464.241ZM787.434 482.213C788.591 484.016 804.472 510.555 822.727 541.188L855.917 596.885L829.51 641.188C814.986 665.555 799.168 692.129 794.359 700.241L785.615 714.991L714.474 714.975L643.332 714.96L628.338 689.725C620.091 675.846 604.271 649.275 593.183 630.678L573.023 596.865L582.093 581.678C601.621 548.982 621.491 515.648 632.106 497.777C638.22 487.484 643.89 478.934 644.706 478.777C645.522 478.62 677.497 478.591 715.761 478.713L785.332 478.935L787.434 482.213ZM265.332 536.009C284.032 567.335 299.729 594.017 300.213 595.303C300.97 597.308 296.44 605.449 268.35 652.566C250.34 682.775 234.525 709.179 233.204 711.241L230.804 714.991H159.942H89.0796L54.4366 657.023C35.3826 625.14 19.5606 598.449 19.2776 597.71C18.9936 596.97 34.5576 569.956 53.8646 537.678L88.9666 478.991L160.15 479.022L231.332 479.053L265.332 536.009ZM436.815 606.747L357.298 607.003L344.611 628.247C289.215 721.004 277.791 740.345 278.044 740.947C278.202 741.325 296.106 771.415 317.829 807.813L357.326 873.991L437.329 873.961L517.332 873.931L532.296 848.711C540.526 834.84 558.452 804.816 572.131 781.992C590.599 751.176 596.764 740.106 596.08 738.992C595.574 738.166 577.702 708.241 556.366 672.491C535.03 636.741 517.294 607.266 516.953 606.991C516.611 606.716 480.549 606.606 436.815 606.747ZM541.797 678.645C560.241 709.529 576.085 736.091 577.006 737.671L578.68 740.543L552.089 785.017C537.464 809.478 521.61 836.016 516.858 843.991L508.218 858.491L437.275 858.709L366.332 858.927L331.09 799.648L295.848 740.369L317.892 703.43C330.016 683.114 345.875 656.488 353.134 644.263L366.332 622.035L437.297 622.263L508.262 622.491L541.797 678.645Z" fill="white" stroke="black" stroke-width="2" mask="url(#path-1-inside-1_46_4)"/>
</svg>
