<svg width="1440" height="1024" viewBox="0 0 1440 1024" fill="none" xmlns="http://www.w3.org/2000/svg">
<path d="M286.803 359.388L286.803 359.388C288.658 356.29 306.277 326.756 325.953 293.756L325.524 293.5L325.953 293.756C335.791 277.256 344.844 262.116 351.505 251.015C354.835 245.465 357.567 240.924 359.499 237.729C360.466 236.131 361.232 234.87 361.773 233.987C362.043 233.546 362.257 233.2 362.411 232.954C362.488 232.831 362.549 232.735 362.595 232.665C362.613 232.637 362.628 232.614 362.64 232.596C362.665 232.585 362.704 232.57 362.761 232.553C362.911 232.507 363.139 232.458 363.462 232.409C364.106 232.311 365.068 232.221 366.412 232.14C369.098 231.977 373.262 231.852 379.356 231.757C391.541 231.567 411.412 231.5 442.537 231.5H521.546L530.829 247.007C554.411 286.399 599.382 361.946 600.329 363.759L600.772 363.527L600.329 363.759C600.429 363.951 600.495 364.125 600.453 364.484C600.406 364.883 600.223 365.504 599.759 366.559C598.834 368.663 596.868 372.332 592.969 379.104C585.179 392.635 569.727 418.47 539.624 468.743L522.104 498.001L442.44 498.256L362.778 498.511L355.31 486C351.123 478.984 333.237 449.024 315.563 419.422C306.727 404.621 298.693 391.105 292.87 381.251C289.958 376.324 287.599 372.314 285.967 369.517C285.152 368.118 284.519 367.023 284.09 366.27C283.876 365.893 283.714 365.604 283.606 365.405C283.577 365.353 283.553 365.307 283.533 365.269C283.572 365.174 283.633 365.041 283.716 364.871C283.882 364.53 284.126 364.065 284.43 363.508C285.037 362.396 285.877 360.932 286.803 359.388ZM362.615 232.609C362.613 232.61 362.611 232.61 362.611 232.61C362.611 232.61 362.612 232.61 362.615 232.609ZM283.492 365.383C283.492 365.383 283.492 365.381 283.494 365.377C283.493 365.381 283.492 365.383 283.492 365.383ZM584.235 365.485L584.389 365.228L301.625 365.606L301.128 365.657C301.128 365.657 301.128 365.657 301.128 365.657C301.134 365.724 301.154 365.781 301.161 365.803C301.172 365.834 301.184 365.865 301.196 365.894C301.221 365.952 301.254 366.021 301.292 366.099C301.37 366.256 301.481 366.468 301.622 366.73C301.906 367.256 302.321 368 302.855 368.941C303.923 370.825 305.471 373.507 307.408 376.832C311.282 383.483 316.711 392.71 322.962 403.273C335.465 424.399 351.255 450.87 364.456 472.758L371.091 483.758L371.236 483.999L371.517 484L442.227 484.257L512.937 484.513L513.222 484.514L513.368 484.269L543.03 434.513C559.345 407.147 575.289 380.42 578.464 375.121L578.035 374.864L578.464 375.121L584.235 365.485Z" fill="#EAD02E" stroke="black"/>
<path d="M564.803 809.388L564.803 809.388C566.658 806.29 584.277 776.756 603.953 743.756L603.524 743.5L603.953 743.756C613.791 727.256 622.844 712.116 629.505 701.015C632.835 695.465 635.567 690.924 637.499 687.729C638.466 686.131 639.232 684.87 639.773 683.987C640.043 683.546 640.257 683.2 640.411 682.954C640.488 682.831 640.549 682.735 640.595 682.665C640.613 682.637 640.628 682.614 640.64 682.596C640.665 682.585 640.704 682.57 640.761 682.553C640.911 682.507 641.139 682.458 641.462 682.409C642.106 682.311 643.068 682.221 644.412 682.14C647.098 681.977 651.262 681.852 657.356 681.757C669.541 681.567 689.412 681.5 720.537 681.5H799.546L808.829 697.007C832.411 736.399 877.382 811.946 878.329 813.759L878.772 813.527L878.329 813.759C878.429 813.951 878.495 814.125 878.453 814.484C878.406 814.883 878.223 815.504 877.759 816.559C876.834 818.663 874.868 822.332 870.969 829.104C863.179 842.635 847.727 868.47 817.624 918.743L800.104 948.001L720.44 948.256L640.778 948.511L633.31 936C629.123 928.984 611.237 899.024 593.563 869.422C584.727 854.621 576.693 841.105 570.87 831.251C567.958 826.324 565.599 822.314 563.967 819.517C563.152 818.118 562.519 817.023 562.09 816.27C561.876 815.893 561.714 815.604 561.606 815.405C561.577 815.353 561.553 815.307 561.533 815.269C561.572 815.174 561.633 815.041 561.716 814.871C561.882 814.53 562.126 814.065 562.43 813.508C563.037 812.396 563.877 810.932 564.803 809.388ZM640.615 682.609C640.613 682.61 640.611 682.61 640.611 682.61C640.611 682.61 640.612 682.61 640.615 682.609ZM561.492 815.383C561.492 815.383 561.492 815.381 561.494 815.377C561.493 815.381 561.492 815.383 561.492 815.383ZM862.235 815.485L862.389 815.228L579.625 815.606L579.128 815.657C579.128 815.657 579.128 815.657 579.128 815.657C579.134 815.724 579.154 815.781 579.161 815.803C579.172 815.834 579.184 815.865 579.196 815.894C579.221 815.952 579.254 816.021 579.292 816.099C579.37 816.256 579.481 816.468 579.622 816.73C579.906 817.256 580.321 818 580.855 818.941C581.923 820.825 583.471 823.507 585.408 826.832C589.282 833.483 594.711 842.71 600.962 853.273C613.465 874.399 629.255 900.87 642.456 922.758L649.091 933.758L649.236 933.999L649.517 934L720.227 934.257L790.937 934.513L791.222 934.514L791.368 934.269L821.03 884.513C837.345 857.147 853.289 830.42 856.464 825.121L856.035 824.864L856.464 825.121L862.235 815.485Z" fill="#EAD02E" stroke="black"/>
<path d="M842.803 666.388L842.803 666.388C844.658 663.29 862.277 633.756 881.953 600.756L881.524 600.5L881.953 600.756C891.791 584.256 900.844 569.116 907.505 558.015C910.835 552.465 913.567 547.924 915.499 544.729C916.466 543.131 917.232 541.87 917.773 540.987C918.043 540.546 918.257 540.2 918.411 539.954C918.488 539.831 918.549 539.735 918.595 539.665C918.613 539.637 918.628 539.614 918.64 539.596C918.665 539.585 918.704 539.57 918.761 539.553C918.911 539.507 919.139 539.458 919.462 539.409C920.106 539.311 921.068 539.221 922.412 539.14C925.098 538.977 929.262 538.852 935.356 538.757C947.541 538.567 967.412 538.5 998.537 538.5H1077.55L1086.83 554.007C1110.41 593.399 1155.38 668.946 1156.33 670.759L1156.77 670.527L1156.33 670.759C1156.43 670.951 1156.5 671.125 1156.45 671.484C1156.41 671.883 1156.22 672.504 1155.76 673.559C1154.83 675.663 1152.87 679.332 1148.97 686.104C1141.18 699.635 1125.73 725.47 1095.62 775.743L1078.1 805.001L998.44 805.256L918.778 805.511L911.31 793C907.123 785.984 889.237 756.024 871.563 726.422C862.727 711.621 854.693 698.105 848.87 688.251C845.958 683.324 843.599 679.314 841.967 676.517C841.152 675.118 840.519 674.023 840.09 673.27C839.876 672.893 839.714 672.604 839.606 672.405C839.577 672.353 839.553 672.307 839.533 672.269C839.572 672.174 839.633 672.041 839.716 671.871C839.882 671.53 840.126 671.065 840.43 670.508C841.037 669.396 841.877 667.932 842.803 666.388ZM918.615 539.609C918.613 539.61 918.611 539.61 918.611 539.61C918.611 539.61 918.612 539.61 918.615 539.609ZM839.492 672.383C839.492 672.383 839.492 672.381 839.494 672.377C839.493 672.381 839.492 672.383 839.492 672.383ZM1140.23 672.485L1140.39 672.228L857.625 672.606L857.128 672.657C857.128 672.657 857.128 672.657 857.128 672.657C857.134 672.724 857.154 672.781 857.161 672.803C857.172 672.834 857.184 672.865 857.196 672.894C857.221 672.952 857.254 673.021 857.292 673.099C857.37 673.256 857.481 673.468 857.622 673.73C857.906 674.256 858.321 675 858.855 675.941C859.923 677.825 861.471 680.507 863.408 683.832C867.282 690.483 872.711 699.71 878.962 710.273C891.465 731.399 907.255 757.87 920.456 779.758L927.091 790.758L927.236 790.999L927.517 791L998.227 791.257L1068.94 791.513L1069.22 791.514L1069.37 791.269L1099.03 741.513C1115.34 714.147 1131.29 687.42 1134.46 682.121L1134.04 681.864L1134.46 682.121L1140.23 672.485Z" fill="#EAD02E" stroke="black"/>
<path d="M842.803 359.388L842.803 359.388C844.658 356.29 862.277 326.756 881.953 293.756L881.524 293.5L881.953 293.756C891.791 277.256 900.844 262.116 907.505 251.015C910.835 245.465 913.567 240.924 915.499 237.729C916.466 236.131 917.232 234.87 917.773 233.987C918.043 233.546 918.257 233.2 918.411 232.954C918.488 232.831 918.549 232.735 918.595 232.665C918.613 232.637 918.628 232.614 918.64 232.596C918.665 232.585 918.704 232.57 918.761 232.553C918.911 232.507 919.139 232.458 919.462 232.409C920.106 232.311 921.068 232.221 922.412 232.14C925.098 231.977 929.262 231.852 935.356 231.757C947.541 231.567 967.412 231.5 998.537 231.5H1077.55L1086.83 247.007C1110.41 286.399 1155.38 361.946 1156.33 363.759L1156.77 363.527L1156.33 363.759C1156.43 363.951 1156.5 364.125 1156.45 364.484C1156.41 364.883 1156.22 365.504 1155.76 366.559C1154.83 368.663 1152.87 372.332 1148.97 379.104C1141.18 392.635 1125.73 418.47 1095.62 468.743L1078.1 498.001L998.44 498.256L918.778 498.511L911.31 486C907.123 478.984 889.237 449.024 871.563 419.422C862.727 404.621 854.693 391.105 848.87 381.251C845.958 376.324 843.599 372.314 841.967 369.517C841.152 368.118 840.519 367.023 840.09 366.27C839.876 365.893 839.714 365.604 839.606 365.405C839.577 365.353 839.553 365.307 839.533 365.269C839.572 365.174 839.633 365.041 839.716 364.871C839.882 364.53 840.126 364.065 840.43 363.508C841.037 362.396 841.877 360.932 842.803 359.388ZM918.615 232.609C918.613 232.61 918.611 232.61 918.611 232.61C918.611 232.61 918.612 232.61 918.615 232.609ZM839.492 365.383C839.492 365.383 839.492 365.381 839.494 365.377C839.493 365.381 839.492 365.383 839.492 365.383ZM1140.23 365.485L1140.39 365.228L857.625 365.606L857.128 365.657C857.128 365.657 857.128 365.657 857.128 365.657C857.134 365.724 857.154 365.781 857.161 365.803C857.172 365.834 857.184 365.865 857.196 365.894C857.221 365.952 857.254 366.021 857.292 366.099C857.37 366.256 857.481 366.468 857.622 366.73C857.906 367.256 858.321 368 858.855 368.941C859.923 370.825 861.471 373.507 863.408 376.832C867.282 383.483 872.711 392.71 878.962 403.273C891.465 424.399 907.255 450.87 920.456 472.758L927.091 483.758L927.236 483.999L927.517 484L998.227 484.257L1068.94 484.513L1069.22 484.514L1069.37 484.269L1099.03 434.513C1115.34 407.147 1131.29 380.42 1134.46 375.121L1134.04 374.864L1134.46 375.121L1140.23 365.485Z" fill="#EAD02E" stroke="black"/>
<path d="M286.803 666.388L286.803 666.388C288.658 663.29 306.277 633.756 325.953 600.756L325.524 600.5L325.953 600.756C335.791 584.256 344.844 569.116 351.505 558.015C354.835 552.465 357.567 547.924 359.499 544.729C360.466 543.131 361.232 541.87 361.773 540.987C362.043 540.546 362.257 540.2 362.411 539.954C362.488 539.831 362.549 539.735 362.595 539.665C362.613 539.637 362.628 539.614 362.64 539.596C362.665 539.585 362.704 539.57 362.761 539.553C362.911 539.507 363.139 539.458 363.462 539.409C364.106 539.311 365.068 539.221 366.412 539.14C369.098 538.977 373.262 538.852 379.356 538.757C391.541 538.567 411.412 538.5 442.537 538.5H521.546L530.829 554.007C554.411 593.399 599.382 668.946 600.329 670.759L600.772 670.527L600.329 670.759C600.429 670.951 600.495 671.125 600.453 671.484C600.406 671.883 600.223 672.504 599.759 673.559C598.834 675.663 596.868 679.332 592.969 686.104C585.179 699.635 569.727 725.47 539.624 775.743L522.104 805.001L442.44 805.256L362.778 805.511L355.31 793C351.123 785.984 333.237 756.024 315.563 726.422C306.727 711.621 298.693 698.105 292.87 688.251C289.958 683.324 287.599 679.314 285.967 676.517C285.152 675.118 284.519 674.023 284.09 673.27C283.876 672.893 283.714 672.604 283.606 672.405C283.577 672.353 283.553 672.307 283.533 672.269C283.572 672.174 283.633 672.041 283.716 671.871C283.882 671.53 284.126 671.065 284.43 670.508C285.037 669.396 285.877 667.932 286.803 666.388ZM362.615 539.609C362.613 539.61 362.611 539.61 362.611 539.61C362.611 539.61 362.612 539.61 362.615 539.609ZM283.492 672.383C283.492 672.383 283.492 672.381 283.494 672.377C283.493 672.381 283.492 672.383 283.492 672.383ZM584.235 672.485L584.389 672.228L301.625 672.606L301.128 672.657C301.128 672.657 301.128 672.657 301.128 672.657C301.134 672.724 301.154 672.781 301.161 672.803C301.172 672.834 301.184 672.865 301.196 672.894C301.221 672.952 301.254 673.021 301.292 673.099C301.37 673.256 301.481 673.468 301.622 673.73C301.906 674.256 302.321 675 302.855 675.941C303.923 677.825 305.471 680.507 307.408 683.832C311.282 690.483 316.711 699.71 322.962 710.273C335.465 731.399 351.255 757.87 364.456 779.758L371.091 790.758L371.236 790.999L371.517 791L442.227 791.257L512.937 791.513L513.222 791.514L513.368 791.269L543.03 741.513C559.345 714.147 575.289 687.42 578.464 682.121L578.035 681.864L578.464 682.121L584.235 672.485Z" fill="#EAD02E" stroke="black"/>
<path d="M564.803 506.388L564.803 506.388C566.658 503.29 584.277 473.756 603.953 440.756L603.524 440.5L603.953 440.756C613.791 424.256 622.844 409.116 629.505 398.015C632.835 392.465 635.567 387.924 637.499 384.729C638.466 383.131 639.232 381.87 639.773 380.987C640.043 380.546 640.257 380.2 640.411 379.954C640.488 379.831 640.549 379.735 640.595 379.665C640.613 379.637 640.628 379.614 640.64 379.596C640.665 379.585 640.704 379.57 640.761 379.553C640.911 379.507 641.139 379.458 641.462 379.409C642.106 379.311 643.068 379.221 644.412 379.14C647.098 378.977 651.262 378.852 657.356 378.757C669.541 378.567 689.412 378.5 720.537 378.5H799.546L808.829 394.007C832.411 433.399 877.382 508.946 878.329 510.759L878.772 510.527L878.329 510.759C878.429 510.951 878.495 511.125 878.453 511.484C878.406 511.883 878.223 512.504 877.759 513.559C876.834 515.663 874.868 519.332 870.969 526.104C863.179 539.635 847.727 565.47 817.624 615.743L800.104 645.001L720.44 645.256L640.778 645.511L633.31 633C629.123 625.984 611.237 596.024 593.563 566.422C584.727 551.621 576.693 538.105 570.87 528.251C567.958 523.324 565.599 519.314 563.967 516.517C563.152 515.118 562.519 514.023 562.09 513.27C561.876 512.893 561.714 512.604 561.606 512.405C561.577 512.353 561.553 512.307 561.533 512.269C561.572 512.174 561.633 512.041 561.716 511.871C561.882 511.53 562.126 511.065 562.43 510.508C563.037 509.396 563.877 507.932 564.803 506.388ZM640.615 379.609C640.613 379.61 640.611 379.61 640.611 379.61C640.611 379.61 640.612 379.61 640.615 379.609ZM561.492 512.383C561.492 512.383 561.492 512.381 561.494 512.377C561.493 512.381 561.492 512.383 561.492 512.383ZM862.235 512.485L862.389 512.228L579.625 512.606L579.128 512.657C579.128 512.657 579.128 512.657 579.128 512.657C579.134 512.724 579.154 512.781 579.161 512.803C579.172 512.834 579.184 512.865 579.196 512.894C579.221 512.952 579.254 513.021 579.292 513.099C579.37 513.256 579.481 513.468 579.622 513.73C579.906 514.256 580.321 515 580.855 515.941C581.923 517.825 583.471 520.507 585.408 523.832C589.282 530.483 594.711 539.71 600.962 550.273C613.465 571.399 629.255 597.87 642.456 619.758L649.091 630.758L649.236 630.999L649.517 631L720.227 631.257L790.937 631.513L791.222 631.514L791.368 631.269L821.03 581.513C837.345 554.147 853.289 527.42 856.464 522.121L856.035 521.864L856.464 522.121L862.235 512.485Z" fill="#EAD02E" stroke="black"/>
<path d="M564.803 203.388L564.803 203.388C566.658 200.29 584.277 170.756 603.953 137.756L603.524 137.5L603.953 137.756C613.791 121.256 622.844 106.116 629.505 95.0152C632.835 89.4647 635.567 84.9243 637.499 81.7287C638.466 80.1308 639.232 78.8698 639.773 77.9871C640.043 77.5457 640.257 77.1999 640.411 76.9543C640.488 76.8314 640.549 76.7349 640.595 76.6647C640.613 76.637 640.628 76.6142 640.64 76.596C640.665 76.5851 640.704 76.5701 640.761 76.5526C640.911 76.507 641.139 76.4581 641.462 76.409C642.106 76.3112 643.068 76.2212 644.412 76.1399C647.098 75.9775 651.262 75.852 657.356 75.7571C669.541 75.5673 689.412 75.5 720.537 75.5H799.546L808.829 91.0068C832.411 130.399 877.382 205.946 878.329 207.759L878.772 207.527L878.329 207.759C878.429 207.951 878.495 208.125 878.453 208.484C878.406 208.883 878.223 209.504 877.759 210.559C876.834 212.663 874.868 216.332 870.969 223.104C863.179 236.635 847.727 262.47 817.624 312.743L800.104 342.001L720.44 342.256L640.778 342.511L633.31 330C629.123 322.984 611.237 293.024 593.563 263.422C584.727 248.621 576.693 235.105 570.87 225.251C567.958 220.324 565.599 216.314 563.967 213.517C563.152 212.118 562.519 211.023 562.09 210.27C561.876 209.893 561.714 209.604 561.606 209.405C561.577 209.353 561.553 209.307 561.533 209.269C561.572 209.174 561.633 209.041 561.716 208.871C561.882 208.53 562.126 208.065 562.43 207.508C563.037 206.396 563.877 204.932 564.803 203.388ZM640.615 76.6085C640.613 76.6098 640.611 76.6104 640.611 76.6104C640.611 76.6104 640.612 76.6098 640.615 76.6085ZM561.492 209.383C561.492 209.383 561.492 209.381 561.494 209.377C561.493 209.381 561.492 209.383 561.492 209.383ZM862.235 209.485L862.389 209.228L579.625 209.606L579.128 209.657C579.128 209.657 579.128 209.657 579.128 209.657C579.134 209.724 579.154 209.781 579.161 209.803C579.172 209.834 579.184 209.865 579.196 209.894C579.221 209.952 579.254 210.021 579.292 210.099C579.37 210.256 579.481 210.468 579.622 210.73C579.906 211.256 580.321 212 580.855 212.941C581.923 214.825 583.471 217.507 585.408 220.832C589.282 227.483 594.711 236.71 600.962 247.273C613.465 268.399 629.255 294.87 642.456 316.758L649.091 327.758L649.236 327.999L649.517 328L720.227 328.257L790.937 328.513L791.222 328.514L791.368 328.269L821.03 278.513C837.345 251.147 853.289 224.42 856.464 219.121L856.035 218.864L856.464 219.121L862.235 209.485Z" fill="#EAD02E" stroke="black"/>
</svg>
