<svg width="874" height="875" viewBox="0 0 874 875" fill="none" xmlns="http://www.w3.org/2000/svg">
<path d="M3.80288 284.388L3.80294 284.388C5.65828 281.29 23.2767 251.756 42.9535 218.756L42.524 218.5L42.9535 218.756C52.7913 202.256 61.8443 187.116 68.5046 176.015C71.8348 170.465 74.5666 165.924 76.4992 162.729C77.4656 161.131 78.2317 159.87 78.7727 158.987C79.0433 158.546 79.257 158.2 79.4109 157.954C79.488 157.831 79.5493 157.735 79.5948 157.665C79.6128 157.637 79.6278 157.614 79.64 157.596C79.6646 157.585 79.7035 157.57 79.761 157.553C79.9111 157.507 80.1389 157.458 80.4622 157.409C81.1059 157.311 82.0677 157.221 83.4123 157.14C86.0979 156.977 90.2618 156.852 96.3558 156.757C108.541 156.567 128.412 156.5 159.537 156.5H238.546L247.829 172.007C271.411 211.399 316.382 286.946 317.329 288.759L317.772 288.527L317.329 288.759C317.429 288.951 317.495 289.125 317.453 289.484C317.406 289.883 317.223 290.504 316.759 291.559C315.834 293.663 313.868 297.332 309.969 304.104C302.179 317.635 286.727 343.47 256.624 393.743L239.104 423.001L159.44 423.256L79.7783 423.511L72.3103 411C68.1233 403.984 50.2373 374.024 32.5633 344.422C23.7266 329.621 15.6935 316.105 9.86969 306.251C6.95773 301.324 4.59851 297.314 2.96747 294.517C2.15181 293.118 1.519 292.023 1.09043 291.27C0.875915 290.893 0.713908 290.604 0.606091 290.405C0.577457 290.353 0.553256 290.307 0.53327 290.269C0.572351 290.174 0.632951 290.041 0.71561 289.871C0.882053 289.53 1.12566 289.065 1.42983 288.508C2.03743 287.396 2.87747 285.932 3.80288 284.388ZM79.6145 157.609C79.6126 157.61 79.6115 157.61 79.6114 157.61C79.6113 157.61 79.6123 157.61 79.6145 157.609ZM0.492064 290.383C0.491986 290.383 0.492388 290.381 0.493522 290.377C0.492717 290.381 0.492144 290.383 0.492064 290.383ZM301.235 290.485L301.389 290.228L18.625 290.606L18.1276 290.657C18.1276 290.657 18.1276 290.657 18.1276 290.657C18.1345 290.724 18.1535 290.781 18.1611 290.803C18.1717 290.834 18.1843 290.865 18.1965 290.894C18.2211 290.952 18.2539 291.021 18.2923 291.099C18.3696 291.256 18.4807 291.468 18.6223 291.73C18.9062 292.256 19.3212 293 19.8549 293.941C20.9228 295.825 22.4713 298.507 24.408 301.832C28.2816 308.483 33.7113 317.71 39.9625 328.273C52.4648 349.399 68.2545 375.87 81.4558 397.758L88.0909 408.758L88.2361 408.999L88.5172 409L159.227 409.257L229.937 409.513L230.222 409.514L230.368 409.269L260.03 359.513C276.345 332.147 292.289 305.42 295.464 300.121L295.035 299.864L295.464 300.121L301.235 290.485Z" fill="#EAD02E" stroke="black"/>
<path d="M281.803 734.388L281.803 734.388C283.658 731.29 301.277 701.756 320.953 668.756L320.524 668.5L320.953 668.756C330.791 652.256 339.844 637.116 346.505 626.015C349.835 620.465 352.567 615.924 354.499 612.729C355.466 611.131 356.232 609.87 356.773 608.987C357.043 608.546 357.257 608.2 357.411 607.954C357.488 607.831 357.549 607.735 357.595 607.665C357.613 607.637 357.628 607.614 357.64 607.596C357.665 607.585 357.704 607.57 357.761 607.553C357.911 607.507 358.139 607.458 358.462 607.409C359.106 607.311 360.068 607.221 361.412 607.14C364.098 606.977 368.262 606.852 374.356 606.757C386.541 606.567 406.412 606.5 437.537 606.5H516.546L525.829 622.007C549.411 661.399 594.382 736.946 595.329 738.759L595.772 738.527L595.329 738.759C595.429 738.951 595.495 739.125 595.453 739.484C595.406 739.883 595.223 740.504 594.759 741.559C593.834 743.663 591.868 747.332 587.969 754.104C580.179 767.635 564.727 793.47 534.624 843.743L517.104 873.001L437.44 873.256L357.778 873.511L350.31 861C346.123 853.984 328.237 824.024 310.563 794.422C301.727 779.621 293.693 766.105 287.87 756.251C284.958 751.324 282.599 747.314 280.967 744.517C280.152 743.118 279.519 742.023 279.09 741.27C278.876 740.893 278.714 740.604 278.606 740.405C278.577 740.353 278.553 740.307 278.533 740.269C278.572 740.174 278.633 740.041 278.716 739.871C278.882 739.53 279.126 739.065 279.43 738.508C280.037 737.396 280.877 735.932 281.803 734.388ZM357.615 607.609C357.613 607.61 357.611 607.61 357.611 607.61C357.611 607.61 357.612 607.61 357.615 607.609ZM278.492 740.383C278.492 740.383 278.492 740.381 278.494 740.377C278.493 740.381 278.492 740.383 278.492 740.383ZM579.235 740.485L579.389 740.228L296.625 740.606L296.128 740.657C296.128 740.657 296.128 740.657 296.128 740.657C296.134 740.724 296.154 740.781 296.161 740.803C296.172 740.834 296.184 740.865 296.196 740.894C296.221 740.952 296.254 741.021 296.292 741.099C296.37 741.256 296.481 741.468 296.622 741.73C296.906 742.256 297.321 743 297.855 743.941C298.923 745.825 300.471 748.507 302.408 751.832C306.282 758.483 311.711 767.71 317.962 778.273C330.465 799.399 346.255 825.87 359.456 847.758L366.091 858.758L366.236 858.999L366.517 859L437.227 859.257L507.937 859.513L508.222 859.514L508.368 859.269L538.03 809.513C554.345 782.147 570.289 755.42 573.464 750.121L573.035 749.864L573.464 750.121L579.235 740.485Z" fill="#EAD02E" stroke="black"/>
<path d="M559.803 591.388L559.803 591.388C561.658 588.29 579.277 558.756 598.953 525.756L598.524 525.5L598.953 525.756C608.791 509.256 617.844 494.116 624.505 483.015C627.835 477.465 630.567 472.924 632.499 469.729C633.466 468.131 634.232 466.87 634.773 465.987C635.043 465.546 635.257 465.2 635.411 464.954C635.488 464.831 635.549 464.735 635.595 464.665C635.613 464.637 635.628 464.614 635.64 464.596C635.665 464.585 635.704 464.57 635.761 464.553C635.911 464.507 636.139 464.458 636.462 464.409C637.106 464.311 638.068 464.221 639.412 464.14C642.098 463.977 646.262 463.852 652.356 463.757C664.541 463.567 684.412 463.5 715.537 463.5H794.546L803.829 479.007C827.411 518.399 872.382 593.946 873.329 595.759L873.772 595.527L873.329 595.759C873.429 595.951 873.495 596.125 873.453 596.484C873.406 596.883 873.223 597.504 872.759 598.559C871.834 600.663 869.868 604.332 865.969 611.104C858.179 624.635 842.727 650.47 812.624 700.743L795.104 730.001L715.44 730.256L635.778 730.511L628.31 718C624.123 710.984 606.237 681.024 588.563 651.422C579.727 636.621 571.693 623.105 565.87 613.251C562.958 608.324 560.599 604.314 558.967 601.517C558.152 600.118 557.519 599.023 557.09 598.27C556.876 597.893 556.714 597.604 556.606 597.405C556.577 597.353 556.553 597.307 556.533 597.269C556.572 597.174 556.633 597.041 556.716 596.871C556.882 596.53 557.126 596.065 557.43 595.508C558.037 594.396 558.877 592.932 559.803 591.388ZM635.615 464.609C635.613 464.61 635.611 464.61 635.611 464.61C635.611 464.61 635.612 464.61 635.615 464.609ZM556.492 597.383C556.492 597.383 556.492 597.381 556.494 597.377C556.493 597.381 556.492 597.383 556.492 597.383ZM857.235 597.485L857.389 597.228L574.625 597.606L574.128 597.657C574.128 597.657 574.128 597.657 574.128 597.657C574.134 597.724 574.154 597.781 574.161 597.803C574.172 597.834 574.184 597.865 574.196 597.894C574.221 597.952 574.254 598.021 574.292 598.099C574.37 598.256 574.481 598.468 574.622 598.73C574.906 599.256 575.321 600 575.855 600.941C576.923 602.825 578.471 605.507 580.408 608.832C584.282 615.483 589.711 624.71 595.962 635.273C608.465 656.399 624.255 682.87 637.456 704.758L644.091 715.758L644.236 715.999L644.517 716L715.227 716.257L785.937 716.513L786.222 716.514L786.368 716.269L816.03 666.513C832.345 639.147 848.289 612.42 851.464 607.121L851.035 606.864L851.464 607.121L857.235 597.485Z" fill="#EAD02E" stroke="black"/>
<path d="M559.803 284.388L559.803 284.388C561.658 281.29 579.277 251.756 598.953 218.756L598.524 218.5L598.953 218.756C608.791 202.256 617.844 187.116 624.505 176.015C627.835 170.465 630.567 165.924 632.499 162.729C633.466 161.131 634.232 159.87 634.773 158.987C635.043 158.546 635.257 158.2 635.411 157.954C635.488 157.831 635.549 157.735 635.595 157.665C635.613 157.637 635.628 157.614 635.64 157.596C635.665 157.585 635.704 157.57 635.761 157.553C635.911 157.507 636.139 157.458 636.462 157.409C637.106 157.311 638.068 157.221 639.412 157.14C642.098 156.977 646.262 156.852 652.356 156.757C664.541 156.567 684.412 156.5 715.537 156.5H794.546L803.829 172.007C827.411 211.399 872.382 286.946 873.329 288.759L873.772 288.527L873.329 288.759C873.429 288.951 873.495 289.125 873.453 289.484C873.406 289.883 873.223 290.504 872.759 291.559C871.834 293.663 869.868 297.332 865.969 304.104C858.179 317.635 842.727 343.47 812.624 393.743L795.104 423.001L715.44 423.256L635.778 423.511L628.31 411C624.123 403.984 606.237 374.024 588.563 344.422C579.727 329.621 571.693 316.105 565.87 306.251C562.958 301.324 560.599 297.314 558.967 294.517C558.152 293.118 557.519 292.023 557.09 291.27C556.876 290.893 556.714 290.604 556.606 290.405C556.577 290.353 556.553 290.307 556.533 290.269C556.572 290.174 556.633 290.041 556.716 289.871C556.882 289.53 557.126 289.065 557.43 288.508C558.037 287.396 558.877 285.932 559.803 284.388ZM635.615 157.609C635.613 157.61 635.611 157.61 635.611 157.61C635.611 157.61 635.612 157.61 635.615 157.609ZM556.492 290.383C556.492 290.383 556.492 290.381 556.494 290.377C556.493 290.381 556.492 290.383 556.492 290.383ZM857.235 290.485L857.389 290.228L574.625 290.606L574.128 290.657C574.128 290.657 574.128 290.657 574.128 290.657C574.134 290.724 574.154 290.781 574.161 290.803C574.172 290.834 574.184 290.865 574.196 290.894C574.221 290.952 574.254 291.021 574.292 291.099C574.37 291.256 574.481 291.468 574.622 291.73C574.906 292.256 575.321 293 575.855 293.941C576.923 295.825 578.471 298.507 580.408 301.832C584.282 308.483 589.711 317.71 595.962 328.273C608.465 349.399 624.255 375.87 637.456 397.758L644.091 408.758L644.236 408.999L644.517 409L715.227 409.257L785.937 409.513L786.222 409.514L786.368 409.269L816.03 359.513C832.345 332.147 848.289 305.42 851.464 300.121L851.035 299.864L851.464 300.121L857.235 290.485Z" fill="#EAD02E" stroke="black"/>
<path d="M3.80288 591.388L3.80294 591.388C5.65828 588.29 23.2767 558.756 42.9535 525.756L42.524 525.5L42.9535 525.756C52.7913 509.256 61.8443 494.116 68.5046 483.015C71.8348 477.465 74.5666 472.924 76.4992 469.729C77.4656 468.131 78.2317 466.87 78.7727 465.987C79.0433 465.546 79.257 465.2 79.4109 464.954C79.488 464.831 79.5493 464.735 79.5948 464.665C79.6128 464.637 79.6278 464.614 79.64 464.596C79.6646 464.585 79.7035 464.57 79.761 464.553C79.9111 464.507 80.1389 464.458 80.4622 464.409C81.1059 464.311 82.0677 464.221 83.4123 464.14C86.0979 463.977 90.2618 463.852 96.3558 463.757C108.541 463.567 128.412 463.5 159.537 463.5H238.546L247.829 479.007C271.411 518.399 316.382 593.946 317.329 595.759L317.772 595.527L317.329 595.759C317.429 595.951 317.495 596.125 317.453 596.484C317.406 596.883 317.223 597.504 316.759 598.559C315.834 600.663 313.868 604.332 309.969 611.104C302.179 624.635 286.727 650.47 256.624 700.743L239.104 730.001L159.44 730.256L79.7783 730.511L72.3103 718C68.1233 710.984 50.2373 681.024 32.5633 651.422C23.7266 636.621 15.6935 623.105 9.86969 613.251C6.95773 608.324 4.59851 604.314 2.96747 601.517C2.15181 600.118 1.519 599.023 1.09043 598.27C0.875915 597.893 0.713908 597.604 0.606091 597.405C0.577457 597.353 0.553256 597.307 0.53327 597.269C0.572351 597.174 0.632951 597.041 0.71561 596.871C0.882053 596.53 1.12566 596.065 1.42983 595.508C2.03743 594.396 2.87747 592.932 3.80288 591.388ZM79.6145 464.609C79.6126 464.61 79.6115 464.61 79.6114 464.61C79.6113 464.61 79.6123 464.61 79.6145 464.609ZM0.492064 597.383C0.491986 597.383 0.492388 597.381 0.493522 597.377C0.492717 597.381 0.492144 597.383 0.492064 597.383ZM301.235 597.485L301.389 597.228L18.625 597.606L18.1276 597.657C18.1276 597.657 18.1276 597.657 18.1276 597.657C18.1345 597.724 18.1535 597.781 18.1611 597.803C18.1717 597.834 18.1843 597.865 18.1965 597.894C18.2211 597.952 18.2539 598.021 18.2923 598.099C18.3696 598.256 18.4807 598.468 18.6223 598.73C18.9062 599.256 19.3212 600 19.8549 600.941C20.9228 602.825 22.4713 605.507 24.408 608.832C28.2816 615.483 33.7113 624.71 39.9625 635.273C52.4648 656.399 68.2545 682.87 81.4558 704.758L88.0909 715.758L88.2361 715.999L88.5172 716L159.227 716.257L229.937 716.513L230.222 716.514L230.368 716.269L260.03 666.513C276.345 639.147 292.289 612.42 295.464 607.121L295.035 606.864L295.464 607.121L301.235 597.485Z" fill="#EAD02E" stroke="black"/>
<path d="M281.803 431.388L281.803 431.388C283.658 428.29 301.277 398.756 320.953 365.756L320.524 365.5L320.953 365.756C330.791 349.256 339.844 334.116 346.505 323.015C349.835 317.465 352.567 312.924 354.499 309.729C355.466 308.131 356.232 306.87 356.773 305.987C357.043 305.546 357.257 305.2 357.411 304.954C357.488 304.831 357.549 304.735 357.595 304.665C357.613 304.637 357.628 304.614 357.64 304.596C357.665 304.585 357.704 304.57 357.761 304.553C357.911 304.507 358.139 304.458 358.462 304.409C359.106 304.311 360.068 304.221 361.412 304.14C364.098 303.977 368.262 303.852 374.356 303.757C386.541 303.567 406.412 303.5 437.537 303.5H516.546L525.829 319.007C549.411 358.399 594.382 433.946 595.329 435.759L595.772 435.527L595.329 435.759C595.429 435.951 595.495 436.125 595.453 436.484C595.406 436.883 595.223 437.504 594.759 438.559C593.834 440.663 591.868 444.332 587.969 451.104C580.179 464.635 564.727 490.47 534.624 540.743L517.104 570.001L437.44 570.256L357.778 570.511L350.31 558C346.123 550.984 328.237 521.024 310.563 491.422C301.727 476.621 293.693 463.105 287.87 453.251C284.958 448.324 282.599 444.314 280.967 441.517C280.152 440.118 279.519 439.023 279.09 438.27C278.876 437.893 278.714 437.604 278.606 437.405C278.577 437.353 278.553 437.307 278.533 437.269C278.572 437.174 278.633 437.041 278.716 436.871C278.882 436.53 279.126 436.065 279.43 435.508C280.037 434.396 280.877 432.932 281.803 431.388ZM357.615 304.609C357.613 304.61 357.611 304.61 357.611 304.61C357.611 304.61 357.612 304.61 357.615 304.609ZM278.492 437.383C278.492 437.383 278.492 437.381 278.494 437.377C278.493 437.381 278.492 437.383 278.492 437.383ZM579.235 437.485L579.389 437.228L296.625 437.606L296.128 437.657C296.128 437.657 296.128 437.657 296.128 437.657C296.134 437.724 296.154 437.781 296.161 437.803C296.172 437.834 296.184 437.865 296.196 437.894C296.221 437.952 296.254 438.021 296.292 438.099C296.37 438.256 296.481 438.468 296.622 438.73C296.906 439.256 297.321 440 297.855 440.941C298.923 442.825 300.471 445.507 302.408 448.832C306.282 455.483 311.711 464.71 317.962 475.273C330.465 496.399 346.255 522.87 359.456 544.758L366.091 555.758L366.236 555.999L366.517 556L437.227 556.257L507.937 556.513L508.222 556.514L508.368 556.269L538.03 506.513C554.345 479.147 570.289 452.42 573.464 447.121L573.035 446.864L573.464 447.121L579.235 437.485Z" fill="#EAD02E" stroke="black"/>
<path d="M281.803 128.388L281.803 128.388C283.658 125.29 301.277 95.7557 320.953 62.7561L320.524 62.5L320.953 62.7561C330.791 46.2563 339.844 31.1162 346.505 20.0152C349.835 14.4647 352.567 9.92425 354.499 6.72868C355.466 5.13079 356.232 3.86981 356.773 2.98715C357.043 2.54566 357.257 2.19988 357.411 1.9543C357.488 1.83136 357.549 1.73491 357.595 1.66472C357.613 1.63698 357.628 1.61418 357.64 1.59598C357.665 1.58507 357.704 1.57014 357.761 1.55263C357.911 1.50696 358.139 1.45807 358.462 1.40896C359.106 1.31118 360.068 1.22125 361.412 1.13992C364.098 0.977467 368.262 0.851987 374.356 0.757064C386.541 0.56726 406.412 0.5 437.537 0.5H516.546L525.829 16.0068C549.411 55.3986 594.382 130.946 595.329 132.759L595.772 132.527L595.329 132.759C595.429 132.951 595.495 133.125 595.453 133.484C595.406 133.883 595.223 134.504 594.759 135.559C593.834 137.663 591.868 141.332 587.969 148.104C580.179 161.635 564.727 187.47 534.624 237.743L517.104 267.001L437.44 267.256L357.778 267.511L350.31 255C346.123 247.984 328.237 218.024 310.563 188.422C301.727 173.621 293.693 160.105 287.87 150.251C284.958 145.324 282.599 141.314 280.967 138.517C280.152 137.118 279.519 136.023 279.09 135.27C278.876 134.893 278.714 134.604 278.606 134.405C278.577 134.353 278.553 134.307 278.533 134.269C278.572 134.174 278.633 134.041 278.716 133.871C278.882 133.53 279.126 133.065 279.43 132.508C280.037 131.396 280.877 129.932 281.803 128.388ZM357.615 1.6085C357.613 1.60982 357.611 1.61044 357.611 1.61044C357.611 1.61044 357.612 1.60977 357.615 1.6085ZM278.492 134.383C278.492 134.383 278.492 134.381 278.494 134.377C278.493 134.381 278.492 134.383 278.492 134.383ZM579.235 134.485L579.389 134.228L296.625 134.606L296.128 134.657C296.128 134.657 296.128 134.657 296.128 134.657C296.134 134.724 296.154 134.781 296.161 134.803C296.172 134.834 296.184 134.865 296.196 134.894C296.221 134.952 296.254 135.021 296.292 135.099C296.37 135.256 296.481 135.468 296.622 135.73C296.906 136.256 297.321 137 297.855 137.941C298.923 139.825 300.471 142.507 302.408 145.832C306.282 152.483 311.711 161.71 317.962 172.273C330.465 193.399 346.255 219.87 359.456 241.758L366.091 252.758L366.236 252.999L366.517 253L437.227 253.257L507.937 253.513L508.222 253.514L508.368 253.269L538.03 203.513C554.345 176.147 570.289 149.42 573.464 144.121L573.035 143.864L573.464 144.121L579.235 134.485Z" fill="#EAD02E" stroke="black"/>
</svg>
