<svg width="894" height="894" viewBox="0 0 894 894" fill="none" xmlns="http://www.w3.org/2000/svg">
<path d="M87.2305 300.868L87.2305 300.868C86.4626 302.152 85.7657 303.369 85.2618 304.294C85.0096 304.757 84.808 305.142 84.6706 305.424C84.6122 305.544 84.5677 305.641 84.5363 305.715C84.5486 305.738 84.5625 305.764 84.578 305.793C84.6671 305.957 84.8013 306.197 84.9793 306.511C85.335 307.137 85.8602 308.047 86.5374 309.211C87.8915 311.538 89.8502 314.875 92.2679 318.975C97.1031 327.173 103.773 338.419 111.11 350.734C125.784 375.364 140.634 400.293 144.111 406.131M87.2305 300.868L144.111 406.131M87.2305 300.868C88.771 298.291 103.399 273.716 119.736 246.259L119.332 246.019L119.736 246.259C127.905 232.53 135.421 219.933 140.951 210.697C143.716 206.078 145.984 202.3 147.588 199.642C148.391 198.312 149.027 197.263 149.476 196.529C149.7 196.162 149.878 195.874 150.005 195.67C150.069 195.568 150.12 195.488 150.157 195.43C150.166 195.417 150.174 195.405 150.18 195.395C150.197 195.389 150.219 195.381 150.249 195.372C150.368 195.336 150.552 195.296 150.819 195.255C151.349 195.175 152.145 195.1 153.261 195.032C155.488 194.897 158.944 194.793 164.003 194.714C174.12 194.556 190.618 194.5 216.46 194.5H282.011L289.694 207.361C309.275 240.14 346.611 302.995 347.396 304.501L347.839 304.269L347.396 304.501C347.473 304.648 347.523 304.777 347.49 305.056C347.452 305.375 347.305 305.882 346.92 306.759C346.155 308.504 344.524 311.553 341.287 317.189C334.82 328.447 321.99 349.942 296.996 391.772L282.474 416.075L216.38 416.287L150.287 416.499M87.2305 300.868L150.287 416.499M144.111 406.131L150.287 416.499M144.111 406.131L150.287 416.499M334.335 305.685L334.182 305.941L329.39 313.959L328.961 313.702L329.39 313.959C326.754 318.368 313.516 340.606 299.971 363.376L275.343 404.776L275.197 405.021L274.911 405.02L216.202 404.807L157.494 404.593L157.212 404.592L157.067 404.351L151.558 395.198C140.597 376.986 127.487 354.961 117.107 337.383C111.916 328.594 107.408 320.916 104.192 315.382C102.584 312.615 101.298 310.383 100.411 308.816C99.9679 308.032 99.6229 307.412 99.3868 306.974C99.2691 306.755 99.1763 306.578 99.1114 306.446C99.0792 306.381 99.0512 306.322 99.0299 306.271C99.0194 306.246 99.0081 306.219 98.9984 306.19C98.9917 306.171 98.9732 306.116 98.9665 306.05C98.9665 306.05 98.9665 306.05 98.9665 306.05L99.4639 305.999L334.335 305.685ZM334.335 305.685L334.182 305.429L309.73 264.356L309.3 264.611L334.335 305.685ZM150.146 195.41C150.144 195.412 150.143 195.412 150.143 195.412C150.143 195.412 150.144 195.411 150.146 195.41ZM84.4904 305.836C84.4903 305.836 84.4907 305.834 84.4921 305.83C84.4911 305.834 84.4905 305.836 84.4904 305.836Z" fill="white" stroke="black"/>
<path d="M564.389 679.184L564.236 679.441L559.462 687.422L559.062 687.183L559.462 687.422C556.836 691.812 543.648 713.95 530.154 736.618L505.62 777.832L505.474 778.077L505.188 778.076L446.702 777.864L388.215 777.651L387.934 777.65L387.789 777.409L382.301 768.298C371.381 750.167 358.321 728.24 347.98 710.741C342.809 701.991 338.318 694.348 335.114 688.839C333.512 686.084 332.231 683.862 331.347 682.302C330.906 681.522 330.562 680.905 330.327 680.469C330.21 680.251 330.117 680.074 330.053 679.943C330.02 679.878 329.993 679.819 329.971 679.769C329.961 679.744 329.95 679.716 329.94 679.688C329.933 679.668 329.915 679.614 329.908 679.548C329.908 679.548 329.908 679.548 329.908 679.547L330.405 679.497L564.389 679.184ZM564.389 679.184L564.236 678.928L539.876 638.039L539.447 638.295L564.389 679.184ZM318.22 674.39L318.22 674.39C319.755 671.824 334.327 647.36 350.603 620.026C358.74 606.359 366.228 593.818 371.737 584.623C374.491 580.025 376.751 576.264 378.349 573.618C379.148 572.294 379.782 571.25 380.229 570.519C380.453 570.153 380.63 569.867 380.757 569.664C380.82 569.562 380.871 569.483 380.908 569.425C380.917 569.412 380.924 569.401 380.931 569.391C380.947 569.385 380.969 569.377 380.998 569.368C381.117 569.332 381.3 569.292 381.566 569.252C382.094 569.172 382.887 569.097 383.998 569.03C386.218 568.895 389.66 568.792 394.7 568.713C404.778 568.556 421.214 568.5 446.958 568.5H512.26L519.913 581.303C539.42 613.934 576.615 676.507 577.396 678.006L577.827 677.782L577.396 678.006C577.473 678.153 577.523 678.28 577.49 678.557C577.452 678.875 577.306 679.38 576.923 680.252C576.16 681.99 574.536 685.025 571.311 690.635C564.868 701.843 552.087 723.241 527.188 764.884L512.722 789.077L446.878 789.288L381.036 789.499L374.885 779.178C371.421 773.366 356.627 748.55 342.009 724.03C334.699 711.77 328.055 700.575 323.238 692.413C320.83 688.332 318.878 685.01 317.529 682.693C316.855 681.535 316.331 680.629 315.977 680.005C315.8 679.693 315.666 679.454 315.577 679.29C315.562 679.262 315.549 679.237 315.536 679.214C315.568 679.141 315.612 679.045 315.67 678.926C315.807 678.645 316.007 678.261 316.259 677.8C316.761 676.88 317.455 675.669 318.22 674.39ZM380.893 569.408C380.893 569.408 380.894 569.407 380.896 569.406C380.894 569.407 380.893 569.408 380.893 569.408Z" fill="white" stroke="black"/>
<path d="M795.335 560.184L795.181 560.441L790.39 568.423L789.985 568.18L790.39 568.423C787.754 572.813 774.515 594.95 760.97 617.619L736.342 658.833L736.196 659.077L735.911 659.076L677.202 658.864L618.494 658.651L618.213 658.65L618.067 658.41L612.559 649.298C601.598 631.168 588.488 609.241 578.107 591.742C572.917 582.992 568.409 575.348 565.192 569.839C563.584 567.085 562.298 564.863 561.412 563.303C560.968 562.523 560.623 561.906 560.387 561.469C560.27 561.252 560.177 561.075 560.112 560.944C560.08 560.879 560.052 560.82 560.03 560.77C560.02 560.745 560.008 560.717 559.999 560.688C559.992 560.669 559.973 560.614 559.967 560.548L795.335 560.184ZM795.335 560.184L795.182 559.927M795.335 560.184L795.182 559.927M795.182 559.927L770.729 519.038C757.28 496.55 744.115 474.606 741.472 470.276L736.671 462.407L736.525 462.168L736.246 462.167L677.344 461.954L618.442 461.742L618.157 461.741M795.182 559.927L618.157 461.741M618.157 461.741L618.01 461.986M618.157 461.741L618.01 461.986M618.01 461.986L588.971 510.605C580.984 523.976 573.735 536.247 568.489 545.245M618.01 461.986L568.489 545.245M568.489 545.245C565.866 549.744 563.743 553.427 562.28 556.02M568.489 545.245L562.28 556.02M562.28 556.02C561.548 557.316 560.979 558.343 560.594 559.065M562.28 556.02L560.594 559.065M560.594 559.065C560.403 559.426 560.254 559.715 560.153 559.925M560.594 559.065L560.153 559.925M560.153 559.925C560.103 560.03 560.061 560.122 560.031 560.198M560.153 559.925L560.031 560.198M560.031 560.198C560.017 560.235 560.001 560.277 559.99 560.319M560.031 560.198L559.99 560.319M559.99 560.319L559.989 560.321M559.99 560.319L559.989 560.321M559.989 560.321C559.982 560.346 559.955 560.439 559.966 560.548L559.989 560.321ZM548.23 555.391L548.23 555.391C549.771 552.825 564.399 528.361 580.736 501.027C588.904 487.36 596.421 474.819 601.95 465.624C604.715 461.026 606.983 457.265 608.588 454.618C609.39 453.295 610.026 452.251 610.475 451.52C610.7 451.154 610.877 450.868 611.005 450.665C611.069 450.563 611.119 450.484 611.157 450.426C611.165 450.413 611.173 450.401 611.179 450.392C611.196 450.385 611.218 450.377 611.248 450.368C611.367 450.332 611.552 450.292 611.819 450.252C612.349 450.172 613.145 450.097 614.26 450.03C616.488 449.895 619.944 449.792 625.003 449.713C635.12 449.556 651.618 449.5 677.46 449.5H743.011L750.694 462.303C770.276 494.935 807.611 557.508 808.396 559.007L808.827 558.781L808.396 559.007C808.473 559.154 808.523 559.281 808.49 559.557C808.452 559.875 808.305 560.379 807.92 561.252C807.155 562.989 805.525 566.024 802.287 571.634C795.82 582.842 782.99 604.24 757.997 645.883L743.475 670.077L677.38 670.288L611.286 670.499L605.11 660.177C601.634 654.366 586.784 629.549 572.109 605.029C564.772 592.77 558.103 581.574 553.267 573.412C550.85 569.331 548.891 566.009 547.537 563.692C546.86 562.534 546.334 561.628 545.979 561.004C545.801 560.692 545.667 560.453 545.578 560.289C545.562 560.262 545.549 560.236 545.537 560.214C545.568 560.141 545.612 560.045 545.67 559.927C545.808 559.645 546.009 559.262 546.261 558.801C546.765 557.881 547.462 556.669 548.23 555.391ZM545.49 560.336C545.49 560.336 545.491 560.334 545.492 560.329C545.491 560.333 545.49 560.336 545.49 560.336Z" fill="white" stroke="black"/>
<path d="M548.231 300.868L548.23 300.868C547.463 302.152 546.766 303.369 546.262 304.294C546.01 304.757 545.808 305.142 545.671 305.424C545.612 305.544 545.568 305.641 545.536 305.715C545.549 305.738 545.563 305.764 545.578 305.793C545.667 305.957 545.801 306.197 545.979 306.511C546.335 307.137 546.86 308.047 547.537 309.211C548.891 311.538 550.85 314.875 553.268 318.975C558.103 327.173 564.773 338.419 572.11 350.734C586.784 375.364 601.634 400.293 605.111 406.131M548.231 300.868L605.111 406.131M548.231 300.868C549.771 298.291 564.399 273.716 580.736 246.259L580.332 246.019L580.736 246.259C588.905 232.53 596.421 219.933 601.951 210.697C604.716 206.078 606.984 202.3 608.588 199.642C609.391 198.312 610.027 197.263 610.476 196.529C610.7 196.162 610.878 195.874 611.005 195.67C611.069 195.568 611.12 195.488 611.157 195.43C611.166 195.417 611.174 195.405 611.18 195.395C611.197 195.389 611.219 195.381 611.249 195.372C611.368 195.336 611.552 195.296 611.819 195.255C612.349 195.175 613.145 195.1 614.261 195.032C616.488 194.897 619.944 194.793 625.003 194.714C635.12 194.556 651.618 194.5 677.46 194.5H743.011L750.694 207.361C770.275 240.14 807.611 302.995 808.396 304.501L808.839 304.269L808.396 304.501C808.473 304.648 808.523 304.777 808.49 305.056C808.452 305.375 808.305 305.882 807.92 306.759C807.155 308.504 805.524 311.553 802.287 317.189C795.82 328.447 782.99 349.942 757.996 391.772L743.474 416.075L677.38 416.287L611.287 416.499M548.231 300.868L611.287 416.499M605.111 406.131L611.287 416.499M605.111 406.131L611.287 416.499M795.335 305.685L795.182 305.941L790.39 313.959L789.961 313.702L790.39 313.959C787.754 318.368 774.516 340.606 760.971 363.376L736.343 404.776L736.197 405.021L735.911 405.02L677.202 404.807L618.494 404.593L618.212 404.592L618.067 404.351L612.558 395.198C601.597 376.986 588.487 354.961 578.107 337.383C572.916 328.594 568.408 320.916 565.192 315.382C563.584 312.615 562.298 310.383 561.411 308.816C560.968 308.032 560.623 307.412 560.387 306.974C560.269 306.755 560.176 306.578 560.111 306.446C560.079 306.381 560.051 306.322 560.03 306.271C560.019 306.246 560.008 306.219 559.998 306.19C559.992 306.171 559.973 306.116 559.967 306.05C559.966 306.05 559.966 306.05 559.966 306.05L560.464 305.999L795.335 305.685ZM795.335 305.685L795.182 305.429L770.73 264.356L770.3 264.611L795.335 305.685ZM611.146 195.41C611.144 195.412 611.143 195.412 611.143 195.412C611.143 195.412 611.144 195.411 611.146 195.41ZM545.49 305.836C545.49 305.836 545.491 305.834 545.492 305.83C545.491 305.834 545.49 305.836 545.49 305.836Z" fill="white" stroke="black"/>
<path d="M334.335 560.184L334.181 560.441L329.39 568.423L328.985 568.18L329.39 568.423C326.754 572.813 313.515 594.95 299.97 617.619L275.342 658.833L275.196 659.077L274.911 659.076L216.202 658.864L157.494 658.651L157.213 658.65L157.067 658.41L151.559 649.298C140.598 631.168 127.488 609.241 117.107 591.742C111.917 582.992 107.409 575.348 104.192 569.839C102.584 567.085 101.298 564.863 100.412 563.303C99.9683 562.523 99.6234 561.906 99.3873 561.469C99.2695 561.252 99.1767 561.075 99.1118 560.944C99.0796 560.879 99.0516 560.82 99.0302 560.77C99.0197 560.745 99.0084 560.717 98.9986 560.688C98.9919 560.669 98.9733 560.614 98.9665 560.548L334.335 560.184ZM334.335 560.184L334.182 559.927M334.335 560.184L334.182 559.927M334.182 559.927L309.729 519.038C296.28 496.55 283.115 474.606 280.472 470.276L275.671 462.407L275.525 462.168L275.246 462.167L216.344 461.954L157.442 461.742L157.157 461.741M334.182 559.927L157.157 461.741M157.157 461.741L157.01 461.986M157.157 461.741L157.01 461.986M157.01 461.986L127.971 510.605C119.984 523.976 112.735 536.247 107.489 545.245M157.01 461.986L107.489 545.245M107.489 545.245C104.866 549.744 102.743 553.427 101.28 556.02M107.489 545.245L101.28 556.02M101.28 556.02C100.548 557.316 99.9791 558.343 99.5944 559.065M101.28 556.02L99.5944 559.065M99.5944 559.065C99.4025 559.426 99.2538 559.715 99.153 559.925M99.5944 559.065L99.153 559.925M99.153 559.925C99.103 560.03 99.0612 560.122 99.0314 560.198M99.153 559.925L99.0314 560.198M99.0314 560.198C99.0167 560.235 99.0015 560.277 98.9896 560.319M99.0314 560.198L98.9896 560.319M98.9896 560.319L98.989 560.321M98.9896 560.319L98.989 560.321M98.989 560.321C98.9818 560.346 98.9554 560.439 98.9665 560.548L98.989 560.321ZM87.23 555.391L87.23 555.391C88.7705 552.825 103.399 528.361 119.736 501.027C127.904 487.36 135.421 474.819 140.95 465.624C143.715 461.026 145.983 457.265 147.588 454.618C148.39 453.295 149.026 452.251 149.475 451.52C149.7 451.154 149.877 450.868 150.005 450.665C150.069 450.563 150.119 450.484 150.157 450.426C150.165 450.413 150.173 450.401 150.179 450.392C150.196 450.385 150.218 450.377 150.248 450.368C150.367 450.332 150.552 450.292 150.819 450.252C151.349 450.172 152.145 450.097 153.26 450.03C155.488 449.895 158.944 449.792 164.003 449.713C174.12 449.556 190.618 449.5 216.46 449.5H282.011L289.694 462.303C309.276 494.935 346.611 557.508 347.396 559.007L347.827 558.781L347.396 559.007C347.473 559.154 347.523 559.281 347.49 559.557C347.452 559.875 347.305 560.379 346.92 561.252C346.155 562.989 344.525 566.024 341.287 571.634C334.82 582.842 321.99 604.24 296.997 645.883L282.475 670.077L216.38 670.288L150.286 670.499L144.11 660.177C140.634 654.366 125.784 629.549 111.109 605.029C103.772 592.77 97.1026 581.574 92.2674 573.412C89.8497 569.331 87.891 566.009 86.5369 563.692C85.8597 562.534 85.3345 561.628 84.9789 561.004C84.8008 560.692 84.6667 560.453 84.5776 560.289C84.5624 560.262 84.5489 560.236 84.5368 560.214C84.568 560.141 84.6123 560.045 84.6702 559.927C84.8076 559.645 85.0091 559.262 85.2614 558.801C85.7652 557.881 86.4621 556.669 87.23 555.391ZM84.4902 560.336C84.4901 560.336 84.4906 560.334 84.4919 560.329C84.491 560.333 84.4903 560.336 84.4902 560.336Z" fill="white" stroke="black"/>
<path d="M318.22 422.868L318.22 422.867C319.755 420.29 334.328 395.716 350.603 368.258C358.74 354.53 366.228 341.932 371.737 332.696C374.492 328.077 376.751 324.3 378.35 321.641C379.149 320.311 379.782 319.262 380.23 318.528C380.454 318.161 380.63 317.874 380.757 317.67C380.821 317.567 380.871 317.488 380.909 317.43C380.917 317.416 380.925 317.405 380.931 317.395C380.948 317.389 380.97 317.381 380.999 317.372C381.117 317.336 381.301 317.296 381.566 317.255C382.095 317.175 382.887 317.1 383.998 317.032C386.218 316.897 389.66 316.793 394.7 316.714C404.778 316.556 421.214 316.5 446.958 316.5H512.259L519.913 329.361C539.42 362.139 576.614 424.994 577.396 426.5C577.473 426.648 577.523 426.777 577.49 427.056C577.452 427.376 577.305 427.883 576.922 428.76C576.159 430.505 574.535 433.554 571.31 439.189C564.867 450.448 552.086 471.942 527.187 513.773L512.721 538.075L446.878 538.287L381.037 538.499L374.885 528.131C371.422 522.294 356.628 497.365 342.009 472.735C334.7 460.42 328.056 449.174 323.239 440.975C320.83 436.876 318.879 433.539 317.53 431.212C316.855 430.048 316.332 429.138 315.978 428.511C315.8 428.198 315.667 427.958 315.578 427.793C315.562 427.764 315.548 427.738 315.536 427.715C315.567 427.641 315.612 427.544 315.67 427.424C315.807 427.141 316.008 426.756 316.259 426.293C316.761 425.368 317.455 424.152 318.22 422.868ZM380.897 317.41C380.895 317.411 380.894 317.412 380.894 317.412C380.894 317.412 380.895 317.411 380.897 317.41ZM315.49 427.836C315.49 427.836 315.491 427.834 315.492 427.829C315.491 427.833 315.491 427.835 315.49 427.836ZM564.236 427.94L564.388 427.685L330.405 427.999L329.908 428.049C329.908 428.05 329.908 428.05 329.908 428.05C329.915 428.116 329.933 428.17 329.94 428.189C329.949 428.218 329.96 428.246 329.971 428.271C329.992 428.321 330.02 428.38 330.052 428.446C330.117 428.577 330.209 428.755 330.326 428.973C330.562 429.412 330.905 430.032 331.347 430.815C332.23 432.382 333.511 434.614 335.113 437.381C338.317 442.915 342.809 450.593 347.979 459.382C358.32 476.96 371.381 498.986 382.3 517.198L387.788 526.35L387.933 526.592L388.215 526.593L446.702 526.807L505.188 527.02L505.474 527.021L505.62 526.775L530.155 485.375C543.649 462.605 556.837 440.367 559.463 435.958L559.062 435.719L559.463 435.958L564.236 427.94Z" fill="white" stroke="black"/>
<path d="M564.389 176.184L564.236 176.441L559.462 184.422L559.062 184.183L559.462 184.422C556.836 188.812 543.648 210.95 530.154 233.618L505.62 274.832L505.474 275.077L505.188 275.076L446.702 274.864L388.215 274.651L387.934 274.65L387.789 274.409L382.301 265.298C371.381 247.167 358.321 225.24 347.98 207.741C342.809 198.991 338.318 191.348 335.114 185.839C333.512 183.084 332.231 180.862 331.347 179.302C330.906 178.522 330.562 177.905 330.327 177.469C330.21 177.251 330.117 177.074 330.053 176.943C330.02 176.878 329.993 176.819 329.971 176.769C329.961 176.744 329.95 176.716 329.94 176.688C329.933 176.668 329.915 176.614 329.908 176.548C329.908 176.548 329.908 176.548 329.908 176.547L330.405 176.497L564.389 176.184ZM564.389 176.184L564.236 175.928L539.876 135.039L539.447 135.295L564.389 176.184ZM318.22 171.39L318.22 171.39C319.755 168.824 334.327 144.36 350.603 117.026C358.74 103.359 366.228 90.8181 371.737 81.6229C374.491 77.0253 376.751 73.2645 378.349 70.6177C379.148 69.2941 379.782 68.2498 380.229 67.5189C380.453 67.1533 380.63 66.8672 380.757 66.6641C380.82 66.5624 380.871 66.483 380.908 66.4254C380.917 66.4122 380.924 66.4008 380.931 66.3911C380.947 66.3848 380.969 66.377 380.998 66.3681C381.117 66.3321 381.3 66.2923 381.566 66.2519C382.094 66.1715 382.887 66.0972 383.998 66.0299C386.218 65.8955 389.66 65.7915 394.7 65.7129C404.778 65.5557 421.214 65.5 446.958 65.5H512.26L519.913 78.3026C539.42 110.934 576.615 173.507 577.396 175.006L577.827 174.782L577.396 175.006C577.473 175.153 577.523 175.28 577.49 175.557C577.452 175.875 577.306 176.38 576.923 177.252C576.16 178.99 574.536 182.025 571.311 187.635C564.868 198.843 552.087 220.241 527.188 261.884L512.722 286.077L446.878 286.288L381.036 286.499L374.885 276.178C371.421 270.366 356.627 245.55 342.009 221.03C334.699 208.77 328.055 197.575 323.238 189.413C320.83 185.332 318.878 182.01 317.529 179.693C316.855 178.535 316.331 177.629 315.977 177.005C315.8 176.693 315.666 176.454 315.577 176.29C315.562 176.262 315.549 176.237 315.536 176.214C315.568 176.141 315.612 176.045 315.67 175.926C315.807 175.645 316.007 175.261 316.259 174.8C316.761 173.88 317.455 172.669 318.22 171.39ZM380.893 66.4078C380.893 66.4078 380.894 66.4072 380.896 66.4059C380.894 66.4072 380.893 66.4078 380.893 66.4078Z" fill="white" stroke="black"/>
</svg>
