<svg width="894" height="894" viewBox="0 0 894 894" fill="none" xmlns="http://www.w3.org/2000/svg">
<g id="Plugin icon - 1">
<g id="top-left" filter="url(#filter0_d_47_4)">
<path fill-rule="evenodd" clip-rule="evenodd" d="M149.818 195.04C149.374 195.613 135.643 218.546 119.307 246.003C102.969 273.461 88.3415 298.035 86.8014 300.612C85.2604 303.189 84 305.502 84 305.752C84 306.003 96.0058 326.36 110.68 350.99C125.354 375.62 140.205 400.549 143.681 406.386L150.003 417L216.381 416.787L282.759 416.574L297.425 392.028C347.41 308.373 348.757 306.028 347.839 304.269C347.045 302.747 309.696 239.869 290.123 207.105L282.294 194H216.46C164.777 194 150.452 194.224 149.818 195.04ZM280.045 215.633C282.686 219.981 295.85 242.021 309.3 264.611L333.753 305.685L328.961 313.702C326.325 318.112 313.086 340.351 299.541 363.12L274.913 404.52L216.204 404.307L157.495 404.093L151.986 394.941C130.066 358.519 99.5494 306.843 99.4639 305.999C99.4066 305.438 112.428 283 128.4 256.14L157.44 207.302L216.342 207.515L275.244 207.729L280.045 215.633Z" fill="white"/>
<path fill-rule="evenodd" clip-rule="evenodd" d="M149.818 195.04C149.374 195.613 135.643 218.546 119.307 246.003C102.969 273.461 88.3415 298.035 86.8014 300.612C85.2604 303.189 84 305.502 84 305.752C84 306.003 96.0058 326.36 110.68 350.99C125.354 375.62 140.205 400.549 143.681 406.386L150.003 417L216.381 416.787L282.759 416.574L297.425 392.028C347.41 308.373 348.757 306.028 347.839 304.269C347.045 302.747 309.696 239.869 290.123 207.105L282.294 194H216.46C164.777 194 150.452 194.224 149.818 195.04ZM280.045 215.633C282.686 219.981 295.85 242.021 309.3 264.611L333.753 305.685L328.961 313.702C326.325 318.112 313.086 340.351 299.541 363.12L274.913 404.52L216.204 404.307L157.495 404.093L151.986 394.941C130.066 358.519 99.5494 306.843 99.4639 305.999C99.4066 305.438 112.428 283 128.4 256.14L157.44 207.302L216.342 207.515L275.244 207.729L280.045 215.633Z" stroke="black"/>
</g>
<g id="bottom-middle" filter="url(#filter1_d_47_4)">
<path fill-rule="evenodd" clip-rule="evenodd" d="M380.568 569.035C380.126 569.605 366.448 592.435 350.173 619.77C333.898 647.105 319.325 671.568 317.791 674.134C316.256 676.699 315 679.002 315 679.251C315 679.5 326.96 699.766 341.579 724.286C356.198 748.806 370.992 773.622 374.455 779.434L380.753 790L446.88 789.788L513.006 789.576L527.617 765.14C577.412 681.86 578.754 679.526 577.84 677.775C577.049 676.259 539.841 613.664 520.342 581.046L512.543 568H446.958C395.471 568 381.2 568.223 380.568 569.035ZM510.303 589.536C512.934 593.864 526.048 615.806 539.447 638.295L563.807 679.184L559.033 687.166C556.407 691.556 543.218 713.694 529.725 736.362L505.19 777.576L446.704 777.364L388.217 777.151L382.729 768.04C360.892 731.781 330.491 680.337 330.405 679.497C330.348 678.938 343.32 656.601 359.232 629.862L388.162 581.242L446.841 581.454L505.519 581.667L510.303 589.536Z" fill="white"/>
<path fill-rule="evenodd" clip-rule="evenodd" d="M380.568 569.035C380.126 569.605 366.448 592.435 350.173 619.77C333.898 647.105 319.325 671.568 317.791 674.134C316.256 676.699 315 679.002 315 679.251C315 679.5 326.96 699.766 341.579 724.286C356.198 748.806 370.992 773.622 374.455 779.434L380.753 790L446.88 789.788L513.006 789.576L527.617 765.14C577.412 681.86 578.754 679.526 577.84 677.775C577.049 676.259 539.841 613.664 520.342 581.046L512.543 568H446.958C395.471 568 381.2 568.223 380.568 569.035ZM510.303 589.536C512.934 593.864 526.048 615.806 539.447 638.295L563.807 679.184L559.033 687.166C556.407 691.556 543.218 713.694 529.725 736.362L505.19 777.576L446.704 777.364L388.217 777.151L382.729 768.04C360.892 731.781 330.491 680.337 330.405 679.497C330.348 678.938 343.32 656.601 359.232 629.862L388.162 581.242L446.841 581.454L505.519 581.667L510.303 589.536Z" stroke="black"/>
</g>
<g id="bottom-right" filter="url(#filter2_d_47_4)">
<path fill-rule="evenodd" clip-rule="evenodd" d="M610.818 450.035C610.374 450.605 596.643 473.435 580.307 500.77C563.969 528.105 549.342 552.568 547.801 555.134C546.26 557.699 545 560.002 545 560.251C545 560.5 557.006 580.766 571.68 605.286C586.354 629.806 601.205 654.622 604.681 660.434L611.003 671L677.381 670.788L743.759 670.576L758.425 646.14C808.41 562.86 809.757 560.526 808.839 558.775C808.045 557.259 770.696 494.664 751.123 462.046L743.294 449H677.46C625.777 449 611.452 449.223 610.818 450.035ZM741.045 470.536C743.686 474.864 756.85 496.806 770.3 519.295L794.753 560.184L789.961 568.166C787.325 572.556 774.086 594.694 760.541 617.362L735.913 658.576L677.204 658.364L618.495 658.151L612.986 649.04C591.066 612.781 560.549 561.337 560.464 560.497C560.407 559.938 573.428 537.601 589.4 510.862L618.44 462.242L677.342 462.454L736.244 462.667L741.045 470.536Z" fill="white"/>
<path fill-rule="evenodd" clip-rule="evenodd" d="M610.818 450.035C610.374 450.605 596.643 473.435 580.307 500.77C563.969 528.105 549.342 552.568 547.801 555.134C546.26 557.699 545 560.002 545 560.251C545 560.5 557.006 580.766 571.68 605.286C586.354 629.806 601.205 654.622 604.681 660.434L611.003 671L677.381 670.788L743.759 670.576L758.425 646.14C808.41 562.86 809.757 560.526 808.839 558.775C808.045 557.259 770.696 494.664 751.123 462.046L743.294 449H677.46C625.777 449 611.452 449.223 610.818 450.035ZM741.045 470.536C743.686 474.864 756.85 496.806 770.3 519.295L794.753 560.184L789.961 568.166C787.325 572.556 774.086 594.694 760.541 617.362L735.913 658.576L677.204 658.364L618.495 658.151L612.986 649.04C591.066 612.781 560.549 561.337 560.464 560.497C560.407 559.938 573.428 537.601 589.4 510.862L618.44 462.242L677.342 462.454L736.244 462.667L741.045 470.536Z" stroke="black"/>
</g>
<g id="top-rigth" filter="url(#filter3_d_47_4)">
<path fill-rule="evenodd" clip-rule="evenodd" d="M610.818 195.04C610.374 195.613 596.643 218.546 580.307 246.003C563.969 273.461 549.342 298.035 547.801 300.612C546.26 303.189 545 305.502 545 305.752C545 306.003 557.006 326.36 571.68 350.99C586.354 375.62 601.205 400.549 604.681 406.386L611.003 417L677.381 416.787L743.759 416.574L758.425 392.028C808.41 308.373 809.757 306.028 808.839 304.269C808.045 302.747 770.696 239.869 751.123 207.105L743.294 194H677.46C625.777 194 611.452 194.224 610.818 195.04ZM741.045 215.633C743.686 219.981 756.85 242.021 770.3 264.611L794.753 305.685L789.961 313.702C787.325 318.112 774.086 340.351 760.541 363.12L735.913 404.52L677.204 404.307L618.495 404.093L612.986 394.941C591.066 358.519 560.549 306.843 560.464 305.999C560.407 305.438 573.428 283 589.4 256.14L618.44 207.302L677.342 207.515L736.244 207.729L741.045 215.633Z" fill="white"/>
<path fill-rule="evenodd" clip-rule="evenodd" d="M610.818 195.04C610.374 195.613 596.643 218.546 580.307 246.003C563.969 273.461 549.342 298.035 547.801 300.612C546.26 303.189 545 305.502 545 305.752C545 306.003 557.006 326.36 571.68 350.99C586.354 375.62 601.205 400.549 604.681 406.386L611.003 417L677.381 416.787L743.759 416.574L758.425 392.028C808.41 308.373 809.757 306.028 808.839 304.269C808.045 302.747 770.696 239.869 751.123 207.105L743.294 194H677.46C625.777 194 611.452 194.224 610.818 195.04ZM741.045 215.633C743.686 219.981 756.85 242.021 770.3 264.611L794.753 305.685L789.961 313.702C787.325 318.112 774.086 340.351 760.541 363.12L735.913 404.52L677.204 404.307L618.495 404.093L612.986 394.941C591.066 358.519 560.549 306.843 560.464 305.999C560.407 305.438 573.428 283 589.4 256.14L618.44 207.302L677.342 207.515L736.244 207.729L741.045 215.633Z" stroke="black"/>
</g>
<g id="bottom-left" filter="url(#filter4_d_47_4)">
<path fill-rule="evenodd" clip-rule="evenodd" d="M149.818 450.035C149.374 450.605 135.643 473.435 119.307 500.77C102.969 528.105 88.3415 552.568 86.8014 555.134C85.2604 557.699 84 560.002 84 560.251C84 560.5 96.0058 580.766 110.68 605.286C125.354 629.806 140.205 654.622 143.681 660.434L150.003 671L216.381 670.788L282.759 670.576L297.425 646.14C347.41 562.86 348.757 560.526 347.839 558.775C347.045 557.259 309.696 494.664 290.123 462.046L282.294 449H216.46C164.777 449 150.452 449.223 149.818 450.035ZM280.045 470.536C282.686 474.864 295.85 496.806 309.3 519.295L333.753 560.184L328.961 568.166C326.325 572.556 313.086 594.694 299.541 617.362L274.913 658.576L216.204 658.364L157.495 658.151L151.986 649.04C130.066 612.781 99.5494 561.337 99.4639 560.497C99.4066 559.938 112.428 537.601 128.4 510.862L157.44 462.242L216.342 462.454L275.244 462.667L280.045 470.536Z" fill="white"/>
<path fill-rule="evenodd" clip-rule="evenodd" d="M149.818 450.035C149.374 450.605 135.643 473.435 119.307 500.77C102.969 528.105 88.3415 552.568 86.8014 555.134C85.2604 557.699 84 560.002 84 560.251C84 560.5 96.0058 580.766 110.68 605.286C125.354 629.806 140.205 654.622 143.681 660.434L150.003 671L216.381 670.788L282.759 670.576L297.425 646.14C347.41 562.86 348.757 560.526 347.839 558.775C347.045 557.259 309.696 494.664 290.123 462.046L282.294 449H216.46C164.777 449 150.452 449.223 149.818 450.035ZM280.045 470.536C282.686 474.864 295.85 496.806 309.3 519.295L333.753 560.184L328.961 568.166C326.325 572.556 313.086 594.694 299.541 617.362L274.913 658.576L216.204 658.364L157.495 658.151L151.986 649.04C130.066 612.781 99.5494 561.337 99.4639 560.497C99.4066 559.938 112.428 537.601 128.4 510.862L157.44 462.242L216.342 462.454L275.244 462.667L280.045 470.536Z" stroke="black"/>
</g>
<g id="middle" filter="url(#filter5_d_47_4)">
<path fill-rule="evenodd" clip-rule="evenodd" d="M380.568 317.04C380.126 317.613 366.448 340.546 350.173 368.003C333.898 395.461 319.325 420.035 317.791 422.612C316.256 425.189 315 427.502 315 427.752C315 428.003 326.96 448.36 341.579 472.99C356.198 497.62 370.992 522.549 374.455 528.386L380.753 539L446.88 538.787L513.006 538.574L527.617 514.028C577.412 430.373 578.754 428.028 577.84 426.269C577.049 424.747 539.841 361.869 520.342 329.105L512.543 316H446.958C395.471 316 381.2 316.224 380.568 317.04ZM510.303 337.633C512.934 341.981 526.048 364.021 539.447 386.611L563.807 427.685L559.033 435.702C556.407 440.112 543.218 462.351 529.725 485.12L505.19 526.52L446.704 526.307L388.217 526.093L382.729 516.941C360.892 480.519 330.491 428.843 330.405 427.999C330.348 427.438 343.32 405 359.232 378.14L388.162 329.302L446.841 329.515L505.519 329.729L510.303 337.633Z" fill="white"/>
<path fill-rule="evenodd" clip-rule="evenodd" d="M380.568 317.04C380.126 317.613 366.448 340.546 350.173 368.003C333.898 395.461 319.325 420.035 317.791 422.612C316.256 425.189 315 427.502 315 427.752C315 428.003 326.96 448.36 341.579 472.99C356.198 497.62 370.992 522.549 374.455 528.386L380.753 539L446.88 538.787L513.006 538.574L527.617 514.028C577.412 430.373 578.754 428.028 577.84 426.269C577.049 424.747 539.841 361.869 520.342 329.105L512.543 316H446.958C395.471 316 381.2 316.224 380.568 317.04ZM510.303 337.633C512.934 341.981 526.048 364.021 539.447 386.611L563.807 427.685L559.033 435.702C556.407 440.112 543.218 462.351 529.725 485.12L505.19 526.52L446.704 526.307L388.217 526.093L382.729 516.941C360.892 480.519 330.491 428.843 330.405 427.999C330.348 427.438 343.32 405 359.232 378.14L388.162 329.302L446.841 329.515L505.519 329.729L510.303 337.633Z" stroke="black"/>
</g>
<g id="top-middle" filter="url(#filter6_d_47_4)">
<path fill-rule="evenodd" clip-rule="evenodd" d="M380.568 66.0354C380.126 66.6053 366.448 89.4355 350.173 116.77C333.898 144.105 319.325 168.568 317.791 171.134C316.256 173.699 315 176.002 315 176.251C315 176.5 326.96 196.766 341.579 221.286C356.198 245.806 370.992 270.622 374.455 276.434L380.753 287L446.88 286.788L513.006 286.576L527.617 262.14C577.412 178.86 578.754 176.526 577.84 174.775C577.049 173.259 539.841 110.664 520.342 78.0461L512.543 65H446.958C395.471 65 381.2 65.2228 380.568 66.0354ZM510.303 86.5364C512.934 90.8643 526.048 112.806 539.447 135.295L563.807 176.184L559.033 184.166C556.407 188.556 543.218 210.694 529.725 233.362L505.19 274.576L446.704 274.364L388.217 274.151L382.729 265.04C360.892 228.781 330.491 177.337 330.405 176.497C330.348 175.938 343.32 153.601 359.232 126.862L388.162 78.2424L446.841 78.4544L505.519 78.6673L510.303 86.5364Z" fill="white"/>
<path fill-rule="evenodd" clip-rule="evenodd" d="M380.568 66.0354C380.126 66.6053 366.448 89.4355 350.173 116.77C333.898 144.105 319.325 168.568 317.791 171.134C316.256 173.699 315 176.002 315 176.251C315 176.5 326.96 196.766 341.579 221.286C356.198 245.806 370.992 270.622 374.455 276.434L380.753 287L446.88 286.788L513.006 286.576L527.617 262.14C577.412 178.86 578.754 176.526 577.84 174.775C577.049 173.259 539.841 110.664 520.342 78.0461L512.543 65H446.958C395.471 65 381.2 65.2228 380.568 66.0354ZM510.303 86.5364C512.934 90.8643 526.048 112.806 539.447 135.295L563.807 176.184L559.033 184.166C556.407 188.556 543.218 210.694 529.725 233.362L505.19 274.576L446.704 274.364L388.217 274.151L382.729 265.04C360.892 228.781 330.491 177.337 330.405 176.497C330.348 175.938 343.32 153.601 359.232 126.862L388.162 78.2424L446.841 78.4544L505.519 78.6673L510.303 86.5364Z" stroke="black"/>
</g>
</g>
<defs>
<filter id="filter0_d_47_4" x="79.5" y="193.5" width="273" height="232.001" filterUnits="userSpaceOnUse" color-interpolation-filters="sRGB">
<feFlood flood-opacity="0" result="BackgroundImageFix"/>
<feColorMatrix in="SourceAlpha" type="matrix" values="0 0 0 0 0 0 0 0 0 0 0 0 0 0 0 0 0 0 127 0" result="hardAlpha"/>
<feOffset dy="4"/>
<feGaussianBlur stdDeviation="2"/>
<feComposite in2="hardAlpha" operator="out"/>
<feColorMatrix type="matrix" values="0 0 0 0 0 0 0 0 0 0 0 0 0 0 0 0 0 0 0.25 0"/>
<feBlend mode="normal" in2="BackgroundImageFix" result="effect1_dropShadow_47_4"/>
<feBlend mode="normal" in="SourceGraphic" in2="effect1_dropShadow_47_4" result="shape"/>
</filter>
<filter id="filter1_d_47_4" x="310.5" y="567.5" width="272" height="231.001" filterUnits="userSpaceOnUse" color-interpolation-filters="sRGB">
<feFlood flood-opacity="0" result="BackgroundImageFix"/>
<feColorMatrix in="SourceAlpha" type="matrix" values="0 0 0 0 0 0 0 0 0 0 0 0 0 0 0 0 0 0 127 0" result="hardAlpha"/>
<feOffset dy="4"/>
<feGaussianBlur stdDeviation="2"/>
<feComposite in2="hardAlpha" operator="out"/>
<feColorMatrix type="matrix" values="0 0 0 0 0 0 0 0 0 0 0 0 0 0 0 0 0 0 0.25 0"/>
<feBlend mode="normal" in2="BackgroundImageFix" result="effect1_dropShadow_47_4"/>
<feBlend mode="normal" in="SourceGraphic" in2="effect1_dropShadow_47_4" result="shape"/>
</filter>
<filter id="filter2_d_47_4" x="540.5" y="448.5" width="273" height="231.001" filterUnits="userSpaceOnUse" color-interpolation-filters="sRGB">
<feFlood flood-opacity="0" result="BackgroundImageFix"/>
<feColorMatrix in="SourceAlpha" type="matrix" values="0 0 0 0 0 0 0 0 0 0 0 0 0 0 0 0 0 0 127 0" result="hardAlpha"/>
<feOffset dy="4"/>
<feGaussianBlur stdDeviation="2"/>
<feComposite in2="hardAlpha" operator="out"/>
<feColorMatrix type="matrix" values="0 0 0 0 0 0 0 0 0 0 0 0 0 0 0 0 0 0 0.25 0"/>
<feBlend mode="normal" in2="BackgroundImageFix" result="effect1_dropShadow_47_4"/>
<feBlend mode="normal" in="SourceGraphic" in2="effect1_dropShadow_47_4" result="shape"/>
</filter>
<filter id="filter3_d_47_4" x="540.5" y="193.5" width="273" height="232.001" filterUnits="userSpaceOnUse" color-interpolation-filters="sRGB">
<feFlood flood-opacity="0" result="BackgroundImageFix"/>
<feColorMatrix in="SourceAlpha" type="matrix" values="0 0 0 0 0 0 0 0 0 0 0 0 0 0 0 0 0 0 127 0" result="hardAlpha"/>
<feOffset dy="4"/>
<feGaussianBlur stdDeviation="2"/>
<feComposite in2="hardAlpha" operator="out"/>
<feColorMatrix type="matrix" values="0 0 0 0 0 0 0 0 0 0 0 0 0 0 0 0 0 0 0.25 0"/>
<feBlend mode="normal" in2="BackgroundImageFix" result="effect1_dropShadow_47_4"/>
<feBlend mode="normal" in="SourceGraphic" in2="effect1_dropShadow_47_4" result="shape"/>
</filter>
<filter id="filter4_d_47_4" x="79.5" y="448.5" width="273" height="231.001" filterUnits="userSpaceOnUse" color-interpolation-filters="sRGB">
<feFlood flood-opacity="0" result="BackgroundImageFix"/>
<feColorMatrix in="SourceAlpha" type="matrix" values="0 0 0 0 0 0 0 0 0 0 0 0 0 0 0 0 0 0 127 0" result="hardAlpha"/>
<feOffset dy="4"/>
<feGaussianBlur stdDeviation="2"/>
<feComposite in2="hardAlpha" operator="out"/>
<feColorMatrix type="matrix" values="0 0 0 0 0 0 0 0 0 0 0 0 0 0 0 0 0 0 0.25 0"/>
<feBlend mode="normal" in2="BackgroundImageFix" result="effect1_dropShadow_47_4"/>
<feBlend mode="normal" in="SourceGraphic" in2="effect1_dropShadow_47_4" result="shape"/>
</filter>
<filter id="filter5_d_47_4" x="310.5" y="315.5" width="272" height="232.001" filterUnits="userSpaceOnUse" color-interpolation-filters="sRGB">
<feFlood flood-opacity="0" result="BackgroundImageFix"/>
<feColorMatrix in="SourceAlpha" type="matrix" values="0 0 0 0 0 0 0 0 0 0 0 0 0 0 0 0 0 0 127 0" result="hardAlpha"/>
<feOffset dy="4"/>
<feGaussianBlur stdDeviation="2"/>
<feComposite in2="hardAlpha" operator="out"/>
<feColorMatrix type="matrix" values="0 0 0 0 0 0 0 0 0 0 0 0 0 0 0 0 0 0 0.25 0"/>
<feBlend mode="normal" in2="BackgroundImageFix" result="effect1_dropShadow_47_4"/>
<feBlend mode="normal" in="SourceGraphic" in2="effect1_dropShadow_47_4" result="shape"/>
</filter>
<filter id="filter6_d_47_4" x="310.5" y="64.5" width="272" height="231.001" filterUnits="userSpaceOnUse" color-interpolation-filters="sRGB">
<feFlood flood-opacity="0" result="BackgroundImageFix"/>
<feColorMatrix in="SourceAlpha" type="matrix" values="0 0 0 0 0 0 0 0 0 0 0 0 0 0 0 0 0 0 127 0" result="hardAlpha"/>
<feOffset dy="4"/>
<feGaussianBlur stdDeviation="2"/>
<feComposite in2="hardAlpha" operator="out"/>
<feColorMatrix type="matrix" values="0 0 0 0 0 0 0 0 0 0 0 0 0 0 0 0 0 0 0.25 0"/>
<feBlend mode="normal" in2="BackgroundImageFix" result="effect1_dropShadow_47_4"/>
<feBlend mode="normal" in="SourceGraphic" in2="effect1_dropShadow_47_4" result="shape"/>
</filter>
</defs>
</svg>
